<svg xmlns="http://www.w3.org/2000/svg" viewBox="0 0 351.7 118.7"><path d="M294.9 105c.7-1.2 0-3-.3-3.8-.3-.8-2.3-3.3-5.2-3.9-1.1-.2-7.3 2.1-5.8 4.1 1.4 2.1 3.8-.5 5.3-.1 1.5.3 3 .1 3.1 1 .1.8-.2 2.4-.2 2.4.1 1 2.5 1.2 3.1.3z"/><path d="M351.6 57.1c-.5 1.4-1.3 3.1-2.5 5.3-1 1.9-4.4 5.7-3.5 5.7 1.2-.1 3.2-1.2 3.2-1.2S336.4 86.6 322.7 87c-3.3.1-5.1-1.6-7-3.3-1.9-1.7-3.2-1.6-3.8-1.3-.6.2-1.1.8-.2 1.4.9.6 2.1 1.9 2.4 2.6.3.7-.3 1.2-.1 2.2.2 1 1.1 1.7 1.5 2.9.4 1.2-.5 3-.5 3s-.3-1.2-.5-1.6c-.2-.3-2.2-.8-2.6-.7-.4.1.8 2.3.8 2.3s-1.9-.3-3.3-.7c-1.4-.4-3.2-1.4-4.1-1.5-1.1-.2-2.3-1-3.7 1.2-1.4 2.1 2.1 6.2 3.2 7.3 1.1 1.1 2.3 1.6 3.1 1.9 1.9.6 4 .4 5.6.6 1 .2.9.4 2.3 1.3 1.4.8-.7 2.8-.7 2.8l-.6.8c.3-.5 1.2-2.2-.7-3.1-.8-.4-3.1-.5-3.1-.5s2.4 1.1 2.7 1.8c.3.7-1.3 3-1.3 3s.4-2.2-.3-2.6c-.8-.4-2.1-.4-3.2-.2-2.3.4-3.8 2.7-6.1 3.3-1.8.5-3.8 3.7-3.8 3.7s.6-1.1 1.1-2.5c.5-1.4 1.9-4.9 1.9-4.9s-4.8 4-5.5 4.2c-.8.1-1.9-1.4-2.1-2.1-.3-.7-2.6-2.3-2.9-2.9-.4-.6.5-1.5-.4-2.3-.5-.5-1.7-.3-2.5-.1-.4.1.9.4 1.1 1 .4 1.5-.5 3-.5 3s.1-3.3-3.8-2.2c-.9.2-2.2 2.2-3.2 2.4-1 .2 0-2.3-7.1-.7-2.5.5-11.6 4.5-11.6 4.5s.1-2.1 1.4-3.9c.6-.9-4 1-6.8 2.2 12.8 8 28.7 11.4 44.8 8.4 30-5.7 50.5-31.8 49-60.6zm-45.1 53.7h-1.1v2.8h-1v-2.8h-1.1v-.8h3.2v.8zm.8 2.7V110h1.3l.9 2.3.9-2.3h1.3v3.6h-1v-2.3l-.9 2.3h-.6l-.9-2.3v2.3"/><path d="M267.2 18.3s.8-2.2 2-4.8c2-4.3 4.5-5.8 4.5-5.8s-2.3 4.9-2.7 9.5c-.3 3.6.5 6.9.5 6.9s.3-.9 1.4-3.9c1.7-4.6 4.5-8.2 4.5-8.2s-1.5 4.6-1.9 8.4c-.5 4.7-.5 7.8-.3 7.8.1 0 .6-.9 1.4-1.6 1-1 1.8-1.6 1.8-1.6s-.5 6.4 1.7 16.4c1.6 7.5 8.4 19.1 6.8 22.4-1.5 3.2-4.7 3.1-5 5.5-.3 2.3 2.5 6.8 6.4 6.3 4.5-.6-.9-6.4-.4-6.9.4-.5 4.7 1.7 4.9 1.2.3-.4-.5-3.8-.5-3.8s2.5 1.2 4.2 1.4c1.7.2 5.4.4 8.2 3.2 2.5 2.5 1.2 6.6 2.8 8.1 1.6 1.5 8.1.2 15.8-4.7 7.2-4.6 17.2-19.2 17.2-19.2s-.8 5.3.1 5.4c1.4.1 7.8-13.3 7.8-13.3-.3 2.4-.4 5.2-1.6 9.3-.9 3-2 4.6-1.4 5 .7.4 4.1-3.7 6-6.1-.2-2.3-.5-4.6-1-6.8-3.7-17.8-15.2-32.3-30.4-40.6-.3-.2-.6-.4-.9-.5-.5-.2-.9-.5-1.4-.7-.7-.3-1.3-.6-2-.9-1.4-.6-2.8-1.2-4.2-1.7-10.2-3.7-21.6-4.8-33-2.7-2.7.5-5.3 1.2-7.9 2-.8 1.8-1.8 4-2.3 5.6-1.5 4.8-1.1 9.4-1.1 9.4z"/><path d="M271.1 96.3c.5-.6-.5-.7-1.4-1.1-.9-.5-2.8-1.4-2.8-1.4s6.3-.2 6.8-2.7c.2-1-3.3-.7-10.6-4.2-4.9-2.4-8-6.1-8-6.1s2.9 1.4 5 1.7c2.2.4 5.6-.5 5.8-1.5.2-.9-4.4-1.8-11.1-8.2-5.5-5.3-5.9-14-5.9-14s1.4 2.4 2.8 4.3 3.3 2.2 3.3 2.2-4.4-4.9-6.6-13.6c-2.1-8.5.8-17 .8-17s.4 5 1.1 7.3c.7 2.3 2 3.2 2 3.2s-1.1-3.2-1.6-8.3c-.6-5.8 3-12.2 3-12.2s0 3.5.2 4.8c.3 1.6.9 5 .9 5s-.1-8.6 3.6-16.9c2.7-6.1 6.1-10.5 8.9-13.4-15.2 6-27.1 17.6-33.3 31.8-8.2-14.2-24.5-22.1-41.6-22.1-17.5 0-29.9 6.1-38.1 14.5-3.3-8.6-10.3-14-23.3-14-14.9 0-27.9 6.7-35.7 15.4v-15l-.4-.4C88.1 17.9 78.6 20 69.3 21c-5.7-4.5-13.4-7-23.1-7C12.2 14 0 37.8 0 58.4 0 73 7.8 87.1 14.1 92.6c7.3 6.5 13.7 9.4 19.5 10.7h74.5v-4.6c-5.3-.5-11.4-1.4-12.2-4.6-.7-3.3-.7-6-.7-10.7V60.9c0-23.6 6.5-35.2 22-35.2 14 0 15.6 12.3 15.6 24.3v33.5c0 4.7 0 7.4-.7 10.7-.7 3.1-6.9 4-12 4.6v4.6h77.4c15.9-2.4 28.8-10.9 35.9-22.9 3.5 8.8 9.1 16.5 16.1 22.6 3.1-.5 7.3-1.3 10.9-2.2 6-1.7 10.1-3.9 10.7-4.6zM44.6 20c5 0 9.5 2.7 12.3 7.1v.1h.1c2 3.2 3.2 7.1 3.2 11.6 0 7.2-4.2 9.5-7.4 9.5H25C25 27.5 34.5 20 44.6 20zm26.5 63.5c0 2 0 3.7-.1 5.1-4 2-9.1 3.7-15.7 3.7C29 92.3 25 65.8 25 54.6h46.1v28.9zM192.4 98c-10.3 0-25.8-6.9-25.8-41.3 0-24.8 10-36.8 22.9-36.8 20.1 0 24.5 28.2 24.5 42C214 89 202.4 98 192.4 98zM258.4 105c-.1-.5-2.8-.3-6.6-.3h-.4c1.5 1.2 3.1 2.4 4.7 3.4.1-.2.3-.5.4-.7 1.2-1.6 2-1.9 1.9-2.4z"/></svg>