<svg xmlns="http://www.w3.org/2000/svg" viewBox="0 0 330.6 54.9"><path d="M121.5 21.2c0-5.5-4.9-9.3-10.7-9.3H86.2v30.5h9.3V30.9h6.5l8.7 11.5h10.6l-9.4-12c5.3.1 9.6-4 9.6-9.2zm-14.6 4.9H95.5v-9.4h11.6c2.7 0 5 2.2 4.9 4.9-.1 2.6-2.4 4.6-5.1 4.5zM162.4 21.2c0-5.5-4.9-9.3-10.7-9.3h-24.6v30.6h9.3V31h6.5l8.7 11.5h10.6l-9.4-12c5.2 0 9.5-4.1 9.6-9.3zm-14.6 4.9h-11.4v-9.4H148c2.7 0 5 2.2 4.9 4.9-.1 2.6-2.4 4.6-5.1 4.5zM60 28.9h17.9v-4.5H60v-7.8h20.9v-4.7H50.6v30.6h30.5v-4.7H60zM177.2 28.9h17.9v-4.5h-17.9v-7.8h20.9v-4.7h-30.3v30.6h30.5l-.1-4.7h-21zM21.8 35.1l-9.6-23.2H0v30.6h5.6V17.4L15 42.5h10.1l9.2-25.1.1 25.1h9.5V11.9H30.4zM212.7 11.9h-9.3v30.6h29.3v-4.7h-20zM246.3 11.9H237v30.6h29.2v-4.7h-19.9zM297.1 0c-15.1 0-27.4 12.3-27.4 27.4 0 15.2 12.3 27.4 27.4 27.4 15.2 0 27.4-12.3 27.4-27.4 0-15.1-12.3-27.4-27.4-27.4zm16.7 36.7V20.2l-5.5 18.1-7.4 2.2-8.2-21.6v24L281 46.4V7.9l18.1 2.8 6.2 17.4 4.6-15.7 8.8 1.4v21.4l-4.9 1.5zM327.8 15.3c1.5 0 2.8 1.2 2.8 2.8 0 1.6-1.3 2.9-2.9 2.9-1.6 0-2.9-1.2-2.9-2.9.1-1.6 1.4-2.8 3-2.8m0 5.3c1.3 0 2.3-1.1 2.3-2.4 0-1.4-1-2.4-2.3-2.4-1.3 0-2.3 1-2.3 2.4-.1 1.3 1 2.4 2.3 2.4zm-1.1-4.1h1.3c.8 0 1.2.3 1.2 1 0 .6-.4.8-.9.9l1 1.5h-.6l-.9-1.4h-.5v1.4h-.5v-3.4zm.5 1.4h.5c.5 0 .9 0 .9-.5 0-.4-.4-.5-.7-.5h-.7v1z"/></svg>