<svg xmlns="http://www.w3.org/2000/svg" viewBox="0 0 344.4 64"><path d="M65.8 30.1h-1.9c-3.9 0-6.7 2.7-6.7 6.5 0 3 .9 6.3 4.7 6.3 3.6 0 4.3-2.7 4.3-5.5v-7s.1-.3-.4-.3zm15 15.1h1.7c.6 0 .5.4.5.4v3.7c0 .6-.6.4-.6.4H67.6s-.3 0-.4-.4c-.2-.9-.5-1.9-.6-2.7-.1-.8-.7 0-.7 0-3.1 2.4-6.4 4.3-10.6 4.3-7.1 0-12.4-4.5-12.4-11.5 0-8.8 5.6-13.8 12.6-13.8l10.6-.3s.1 0 .1-.4v-1.2c0-3.1-1.7-4.4-5.2-4.4-4.4 0-6.4 1.6-8.5 4.1 0 0-.1.3-.6.1-.4-.2-4.2-1.5-4.2-1.5s-.3 0-.1-.5c.2-.5 4.7-11.6 4.7-11.6s0-.4.4-.2c.5.2 3.5 1.1 4 1.3.5.2.3.6.3.6s-.1.5-.3.9c-.4.9.3.5.3.5 2.9-1.1 5.9-1.6 9-1.6 8.8 0 14.5 3.6 14.5 12.6v20.5s-.1.7.3.7zm.9-31c5.9-1.7 11.1-5.6 13.6-11.1 0 0 0-.4.5-.3.4.1 3.4.6 4 .7.5.1.3.4.3.4-.4 1.8-.5 4-.5 5.6v2.7c0 .4.3.3.3.3h6.4c.4 0 .2.3.2.3s-.9 4.7-1.1 5.3c-.1.5-.4.3-.4.3h-5.1c-.4 0-.3.3-.3.3v21.6c0 2.4 2 2.8 3.2 2.8 1.2 0 1.4 0 2.3-.4 0 0 .3-.3.5.2.1.4 1.4 3.4 1.6 3.8.2.4-.2.5-.2.5-5 3.6-5.5 3.8-11.8 3.8-7.1 0-9.9-3.4-9.9-10V18.7s.1-.3-.3-.3h-3.3s-.3.1-.3-.4v-3.5c0-.2.3-.3.3-.3zm105.4 16.9c0-12.2 9.6-19.7 22-19.7 12.5 0 22.1 7.5 22.1 19.7 0 12.3-9.6 19.8-22.1 19.8-12.4 0-22-7.5-22-19.8zm14.3-5.4c0 5.5 2.3 19.4 10.2 19.4 4.2 0 5.3-4.5 5.3-8.6 0-5.5-2.3-19.4-10.2-19.4-5.3 0-5.3 5.8-5.3 8.6zm73.8 24H256s-.3.1-.3-.3v-4c0-.4.4-.3.4-.3h2.3c.4 0 .3-.3.3-.3v-21c0-2.2-2-3.3-4.1-3.3-2.5 0-4.3 1.4-6.1 2.9 0 0-.3.2-.3.6v21s-.1.3.3.3h2.4s.4-.1.4.3v4c0 .3-.3.3-.3.3h-19.6s-.2.1-.2-.4v-3.9c0-.5.2-.3.2-.3h2.2c.4 0 .3-.3.3-.3V20s.2-.5-.4-.3c-.6.2-2 .5-2 .5s-.4.2-.4-.2v-3.8c0-.4.3-.4.3-.4l16.5-4.4s.4-.2.4.2V17c0 .6.4.1.4.1 3.9-2.9 7.8-5.9 13-5.9 9.9 0 11.3 6.6 11.3 10.8v22.7s0 .4.3.4h2s.3-.1.3.3v3.9c0 .6-.4.4-.4.4zm19.9-38.2L278.6 16s-.3 0-.3.3V20c0 .5.5.3.5.3s1.1-.2 2-.4c.5-.1.3.4.3.7v24.2s.1.4-.3.4h-2.3s-.3-.1-.3.4v3.9c0 .5.3.3.3.3h19.2c.5 0 .3-.4.3-.4v-3.8c0-.5-.4-.4-.4-.4h-1.9c-.5 0-.3-.3-.3-.3V11.8c0-.5-.3-.3-.3-.3zm-6-11.5c3.4 0 7 .8 7 4.8 0 4.8-6.2 6.4-10.1 6.4-3.1 0-5.3-1.6-5.3-4.7 0-3.7 5-6.5 8.4-6.5zM130.3 30.1h-1.9c-3.9 0-6.7 2.7-6.7 6.5 0 3 .9 6.3 4.7 6.3 3.6 0 4.3-2.7 4.3-5.5v-7s.1-.3-.4-.3zm15 15.1h1.7c.6 0 .5.4.5.4v3.7c0 .6-.6.4-.6.4h-14.8s-.3 0-.4-.4c-.2-.9-.5-1.9-.6-2.7-.1-.8-.7 0-.7 0-3.1 2.4-6.4 4.3-10.6 4.3-7.1 0-12.4-4.5-12.4-11.5 0-8.8 5.6-13.8 12.6-13.8l10.6-.3s.1 0 .1-.4v-1.2c0-3.1-1.7-4.4-5.2-4.4-4.4 0-6.4 1.6-8.5 4.1 0 0-.1.3-.6.1-.4-.2-4.2-1.5-4.2-1.5s-.3 0-.1-.5c.2-.5 4.7-11.6 4.7-11.6s0-.4.4-.2c.5.2 3.5 1.1 4 1.3.5.2.3.6.3.6s-.1.5-.3.9c-.4.9.3.5.3.5 2.9-1.1 5.9-1.6 9-1.6 8.8 0 14.5 3.6 14.5 12.6v20.5s-.1.7.3.7zm15.1-24c0 4.1 2.4 15.5 8.3 15.5 2.9 0 4.1-1.4 4.1-5.1 0-4.1-2.4-15.5-8.3-15.5-2.9.1-4.1 1.5-4.1 5.1zm6.1 30.4c-.6.6-1.2 3.1-1.2 4.8 0 1.9 1 3.9 3.2 3.9 2 0 3-.9 3-2.8 0-3.4-1.9-4.5-4.5-6.1.1.1-.1-.1-.5.2zm15.6-39.1c-.8-.5-.9-.6-2.5-.5-.9.1-1.4.8-1.4 1.7 0 1.5 7.3 3.9 7.3 12.7 0 11.8-11 14.3-20.3 16.6 0 0-1.1.2 0 .3 6.3.6 19.1 2.2 19.1 10.5S173 64 168.3 64c-6.9 0-13.9-1.4-13.9-7.6 0-3.5 3.8-5.9 7.1-6.5 0 0 1-.1 0-.3-1.1-.1-7.3-.7-9.5-.2 0 0-.5.1-.6-.3-.2-.5-1.5-3.8-1.6-4-.2-.6.2-.6.2-.6 4.6-.7 8.7-3.2 10.6-3.7 1-.3 0-.5 0-.5-6.5-1.2-12.9-5.6-12.9-13.3 0-10.9 8.9-15.6 17.4-15.6 3.9 0 6.2.6 8.3.9 0 0 .3.1.5-.3.2-.7.8-2.5.8-2.5.9-2.8 2.3-3.9 6.6-3.9.8 0 1.7.1 2.5.2 0 0 .4-.1.3.4-.1.4-1.5 5.9-1.5 6.2-.2.5-.5.1-.5.1zM321 30.1h-1.9c-3.9 0-6.7 2.7-6.7 6.5 0 3 .9 6.3 4.7 6.3 3.6 0 4.3-2.7 4.3-5.5v-7s.1-.3-.4-.3zm15 15.1h1.7c.6 0 .5.4.5.4v3.7c0 .6-.6.4-.6.4h-14.8s-.3 0-.4-.4c-.2-.9-.5-1.9-.6-2.7-.1-.8-.7 0-.7 0-3.1 2.4-6.4 4.3-10.6 4.3-7.1 0-12.4-4.5-12.4-11.5 0-8.8 5.6-13.8 12.6-13.8l10.6-.3s.1 0 .1-.4v-1.2c0-3.1-1.7-4.4-5.2-4.4-4.4 0-6.4 1.6-8.5 4.1 0 0-.1.3-.5.1-.4-.2-4.2-1.5-4.2-1.5s-.3 0-.1-.5c.2-.5 4.7-11.6 4.7-11.6s0-.4.4-.2c.5.2 3.5 1.1 4 1.3.5.2.3.6.3.6s-.1.5-.3.9c-.4.9.3.5.3.5 2.9-1.1 5.9-1.6 9-1.6 8.8 0 14.5 3.6 14.5 12.6v20.5c-.1 0-.2.7.2.7zM17 20.4V39c0 3.3 1.1 6.1 4.8 6.1 4.7 0 6.7-2.9 6.7-11.4 0-13.6-6.9-14.3-9.3-14.3l-1.9.3c.2 0-.3.2-.3.7zm.4-5.6c3.3-2 6-3.4 9.5-3.4 9 0 16 7.3 16 18.1 0 10.7-6.7 21.4-18.3 21.4-2.2 0-5.2-.3-7.3-1.3 0 0-.3-.1-.3.2v6.6s0 .6.5.6h4.2s.4 0 .4.5V61c0 .4-.4.5-.4.5H.6s-.6 0-.6-.5v-3.6c0-.5.5-.4.5-.4h1.8c.5 0 .5-.5.5-.5V20.2c0-.5-.5-.3-.5-.3l-1.9.5s-.4.2-.4-.3v-3.8c0-.4.3-.4.3-.4l16.3-4.2s.4-.1.4.3v2.8c0 .2.4 0 .4 0zM333.7 8.5c0-3 2.4-5.2 5.3-5.2s5.3 2.2 5.3 5.2-2.4 5.3-5.3 5.3c-2.8 0-5.3-2.2-5.3-5.3zm5.4 4.4c2.4 0 4.2-1.9 4.2-4.4 0-2.5-1.9-4.4-4.2-4.4-2.4 0-4.3 1.9-4.3 4.4 0 2.6 1.9 4.4 4.3 4.4zm-1.1-1.3h-1V5.5h2.3c1.4 0 2.1.5 2.1 1.7 0 1.1-.7 1.6-1.6 1.7l1.7 2.7h-1L339 9h-1v2.6zm1.1-3.4c.8 0 1.5-.1 1.5-1 0-.7-.7-.9-1.3-.9H338v1.9h1.1z"/></svg>