<svg xmlns="http://www.w3.org/2000/svg" viewBox="0 0 180 82.9"><path d="M32.1 79.6c0-.4-.2-.6-.4-.6-.2-.1-.3-.1-.5-.1h-1.1v2.2h.5v-.7h.5l.5.8v.1l.3-.2h.1l-.4-.6c.1 0 .1-.1.2-.1.2-.4.3-.6.3-.8zm-.4 0c0 .1 0 .2-.1.2 0 0-.1.1-.3.1h-.7v-.5h.7c.2 0 .3.1.3.1v.1c0-.1.1-.1.1 0z"/><path d="M32.6 78.4c-.4-.4-1-.7-1.6-.7-1.3 0-2.3 1-2.3 2.3 0 1.3 1 2.3 2.3 2.3.6 0 1.2-.3 1.6-.7.4-.4.7-1 .7-1.6 0-.6-.3-1.2-.7-1.6zm-2.8 2.9c-.3-.3-.5-.8-.5-1.3s.2-.9.5-1.3c.3-.3.8-.5 1.3-.5 1 0 1.8.8 1.8 1.8s-.8 1.8-1.8 1.8c-.6 0-1-.2-1.3-.5z"/><g><path d="M65.4 25.8H60V4.6h-7.8V.1h20.9v4.5h-7.8v21.2zM79.9 14.2v11.5h-5.4V.1h5.4v9.7h10V.1h5.4v25.7H90V14.2H79.9zM116.8 4.6h-13.5V10h11.9v4.5h-11.9v6.7h13.5v4.5H98.3V.1h18.5v4.5zM15.9 28.3h5V54h-5.4L5.1 35.7H5V54H0V28.3h5.6l10.2 17.9h.1V28.3zM35.9 27.6c3.4 0 12.3 1.5 12.3 13.5 0 12.1-8.9 13.5-12.3 13.5-3.4 0-12.4-1.5-12.4-13.5.1-12 9-13.5 12.4-13.5zm0 22.5c2.9 0 7-1.8 7-9s-4.1-9-7-9c-2.9 0-7 1.8-7 9s4.1 9 7 9zM86.4 54H81V32.8h-7.8v-4.5h20.9v4.5h-7.8V54zM101.4 42.5V54H96V28.3h5.4V38h10v-9.7h5.4V54h-5.4V42.5h-10zM40.2 82.2h-5.4V56.5h18.3V61H40.2v5.8h11.3v4.5H40.2v10.9zM55.5 82.2h-5.7L59 56.5h6.2l9 25.7h-5.8l-1.6-5.3h-9.5l-1.8 5.3zm3.3-9.7h6.5l-3.2-10.2H62l-3.2 10.2zM90.8 64.9c-.4-1.5-1.3-4.4-5.7-4.4-2.6 0-6.4 1.7-6.4 9 0 4.6 1.8 8.8 6.4 8.8 3 0 5-1.7 5.7-4.8h5.4C95.1 79.1 91.5 83 85 83c-6.8 0-11.7-4.6-11.7-13.5 0-9 5.2-13.6 11.8-13.6 7.7 0 10.8 5.3 11.1 9.1h-5.4zM116.8 61.1h-13.5v5.4h11.9V71h-11.9v6.7h13.5v4.5H98.3V56.5h18.5v4.6zM50.9 28.3h13c6.8 0 8.1 5 8.1 7.3 0 2.8-1.4 5.2-4 6.1 2.1.9 3.3 1.7 3.3 6.5 0 3.8 0 4.7 1.1 5.1v.7h-5.9c-.4-1.2-.6-2.5-.6-5.2 0-3.5-.2-4.9-4.2-4.9h-5.5v10H51V28.3zm11.5 11.3c2.8 0 4.1-1 4.1-3.5 0-1.4-.6-3.4-3.8-3.4H56v6.9h6.4z"/></g><g><path d="M123 28.2h-2.7v26h4.6c5.6 0 10.2 4.6 10.2 10.2v17.9h18.8V59c-.1-17-13.9-30.8-30.9-30.8z"/><path d="M132.8 64.3c0-4.4-3.5-7.9-7.9-7.9h-4.6v25.8h12.5V64.3zM120.3 0v25.9h2.7c18.3 0 33.1 14.8 33.1 33.2v23.2H180V59.8c0-33-26.6-59.8-59.7-59.8z"/></g></svg>