<svg xmlns="http://www.w3.org/2000/svg" viewBox="0 0 117.645 36.64"><g fill="#A1C900"><path d="M85 26.6c-2.8-2.4-5.6-5-8.5-7.3L75 17.8c-.6.3-1.2.5-1.8 1l-1.6 1-1 1-3 2.3-2 1.6c-.4.3-.6.5-.6 1v.7h.4l.8-.6c2.4-2 5-3.7 7.3-5.5l.7-.5c.3.6.2 1-.3 1.3l-8.3 6-1 .8c.2.2.4.4.4.6v.5h.3l2-1.4 6.5-5c.2 0 .3-.3.6-.2v1.2l-.8.6-7.8 6c-.6.3-.8 1-.6 1.6.6 0 1-.3 1.5-.6l6.8-5 1-.7c0 .5 0 1-.4 1.3l-.6.5c-2.5 2-5 3.7-7.5 5.6-.3 0-.6.2-.7.4-.2.2-.2.5-.2.7l.2.5c1-.4 1.6-1 2.4-1.4.8-.4 1.5-1 2.3-1.5l2-1.6c.8-.6 1.5-1.2 2.4-1.6v1l-.4.3-4.2 3-2 1.6-1 .8v.5h.4l.7-.3c1.7-1.2 3.5-2.4 5.4-3.4l.8-.6.2.3v.4l.2.4v4.3h.8v-1-.4-.5-.5-.3-2-.2-1l.7.5c1.4 1 2.6 2.2 4 3.3.2.3.4.6.8.7.2 0 .4-.3.2-.6 0-.2-.2-.3-.3-.4l-3-3c-.8-.6-1.5-1.2-2-2-.5-.2-.5-.4-.2-1 1.8 1.6 3.7 3 5.3 4.6.8.8 1.8 1.4 2.7 2.2H84c.2 0 .2-.3 0-.3 0-.4-.2-.6-.5-.8l-7.7-7.5c-.6-.5-.6-1-.4-1.8.3 0 .4 0 .5.2l7.3 7 1 .7c.2-.6 0-1 0-1.5 0-.2-.3-.4-.6-.7l-8-7.5c-.4-.3-.6-.7-.3-1.2l.6.6 1.6 1.5 1 1c2 1.6 3.6 3 5.3 4.6 0 .2.3.3.5.4.4-.5.4-.6 0-1l-.5-.5-8-7.3c0-.2-.4-.4-.6-.6V20c.5.2.7.5 1 .7l7.8 6.7c.6.6.7.6 1.6 0 0-.3-.5-.5-.7-.8zM98 7l-6.4-5.5L90.3.3 90 0l-1.7 1-1 .7-.8.6-3.6 3c-.3 0-.5.2-.7.3L82 6v.8c.4 0 .6-.2.8-.3L87.4 3 89 1.8c.2 0 .3-.2.5 0v1.8c0 1.2.2 1-.8 1.8l-6 4.4c-.4.4-.7.8-.5 1.6l1-.5 6-4.6s0-.2.4 0v3l-1 .6c-2 1-3.8 2.3-5.5 4-.3.4.4 1.2 1 .7l1.7-1.6c1-.5 2-1.2 3.2-2h.3s0-.2.2-.2v1c0 1.4 0 3 .2 4.5v1h.5v-1V11c0-.2 0-.4.3-.5l1.4 1c.3.5.8 1 1.3 1.4.4.3.8.7 1.4 1 .2 0 .3-.2.2-.4l-.6-.5-4-4c-.2-1.6-.2-3 0-3.4.4.4 1 .8 1.3 1.3 1.7 1.4 3.4 3 5 4.6.2 0 .4.3.5.4h.4v-1l-.6-.6L91.3 5l-1-.8v-.5-1V2 2c.5 0 .7.2 1 .4l6 5.3c.6.5.7.5 1.4 0 0-.2-.3-.4-.6-.6zM28.6 7.6L24.4 4l-.8-.8h-.2c-.4 0-.8.3-1 .6-.3 0-.5.2-.7.3l-.5.6-2.4 1.8-.3.3s-.2 0-.2.2v.5c.2 0 .3-.2.5-.3l3-2.2 1-.8h.3v1.2c0 .8.2.6-.5 1l-3.8 3c-.3.2-.4.5-.3 1l.6-.3 3.8-2.8h.3v1c0 .3.2.6 0 1-1.3 1-2.8 1.5-4 2.6-.2.4.3.8.6.5l.4-.4 3-2c.2.2 0 .4 0 .6l.2 3v.5h.3v-.4V10l.2-.2 1 .8.8.8 1 .7c.2.4.7 0 .4-.4-1-1-2.2-1.8-3-3h-.4v-2l1 1 3.2 3s.2 0 .3.2h.3v-.6c0-.2-.3-.3-.4-.5L24 6.4l-.5-.6-.2-.4v-.7c.2 0 0 0 0-.2 0 0 .2 0 .2-.2.2 0 .3.2.5.3l4 3.4c.3.3.4.3.8 0l-.4-.4zM11.4 20h-.2L.8 27.4c-.4.4-.5 1-.8 1.7l.4.3c3.4-2.4 6.7-5 10-7.5.5.8 0 1.2-.4 1.6l-8 6c-.7.4-1.3 1-2 1.3 0 .5.3.8.5 1.3l1-.5 8.4-6.3c0-.2.3-.4.6-.6.3.8.2 1.3-.5 1.8l-8.7 6.6c-.6.5-1 1-.8 2.2.6-.3 1.2-.5 1.7-1 2.4-1.7 5-3.5 7.3-5.3l1.2-.8c.3.8 0 1.2-.6 1.6l-8.7 6.6h2s3.8-2.8 7.3-4.8c.4.7 0 1-.5 1.5l-4.4 3.3h2l2.4-1.4.6-.3c.3.6 0 .8-.5 1.2v.4h2.4s0-.4-.2-.7l-.5-1.3.3-.2 1 .7 1.5 1.4H16L12.2 33c-.4-.4-.7-.7 0-1.3l4.3 3.8 1.3 1h1.8l-1-.8c-2.2-2.2-4-3.8-6.4-6-.5-.5-.6-1-.3-2l9.8 9s.3-1.5-.4-2c-3-3-6-5.7-9-8.5-.4-.3-.5-.8-.8-1.2 0 0 .2 0 .3-.2 3.2 3 6.5 5.8 9.8 8.7 1-.6.4-1 0-1.4l-9.2-8.3-.8-1h.2l.8.4 8.2 7.3c.7.7 1.5 1.2 2.4.5v-.4L12 20.6l-.6-.7zM45 18c.3 0 .4 0 .5.2 1 1 2.2 2 3.2 3.2.7.8 1.4 1.5 2.3 2l1 1c.4.5.8 1 1.4 1.4.2 0 .3 0 .4.3.5.8 1.2 1.4 2 2v.2h.2V28h.3v-1.7c-.2 0-.3.2-.4.3-1.8-1.6-3.4-3.3-5.3-4.8-.6-.4-1-1-1.7-1.6l-.7-.7-3.3-3.3V13c.2-.2.3 0 .4 0 1.4 1.3 2.5 2.7 3.7 4 .3 0 .5.3.7.5 1.2 1 2.2 2.2 3.2 3.4.5.7 1.3 1.4 2 2l.7.7v.4h.2l.2-.3V22c0 .2-.2.2-.3.3-.5-.4-1-1-1.5-1.3-.6-.7-1-1.4-1.7-2 0-.2-.3-.4-.4-.5l-3-3s-.3 0-.4-.3c-.7-1-1.8-1.8-2.7-2.8L45 11V8l.6.6 3 3.2 2.8 3c1 1.3 2 2.3 3 3.4l.7.8c.3 0 .4.3.6.4 0 .2 0 .3.2.4h.5v-.6c0-.3 0-.7-.2-1l-3.4-3.7-2.7-2.8-1.5-1.6c-.4-.4-1-1-1.3-1.5l-.4-.4c-.4-1-1.4-1.4-2.2-2H44 44c-.8.7-1.8 1-2.3 2 0 .3-.2.4-.3.6l-1.4 1.6-1.4 1.5-2.7 2.8-3.6 4v.7c0 .2 0 .5.2.6l1-.8.8-.8c1-1 2-2 3-3.3l3-3.2 2.8-3c0-.3.3-.4.7-.7v3L42 12.6c-1 1-2 1.7-2.7 2.8l-.4.4-3 2.8c-.2 0-.4.3-.5.5l-1.7 2-1.7 1.6c0 .5 0 1 .2 1.5.4-.3.8-.6 1-1 .8-.6 1.6-1.3 2.2-2 1-1.3 2-2.5 3.3-3.5.2 0 .3-.3.5-.5 1.3-1.3 2.4-2.7 3.7-3.8 0 0 .2-.3.4-.2v3.3L40 19.6l-.7.7-1.7 1.6c-2 1.4-3.7 3-5.4 4.7-.2 1-.2 1 0 1.5 1-.7 1.7-1.3 2.3-2 0-.2.2-.4.3-.4.7-.3 1-1 1.5-1.4l1-1c.8-.5 1.6-1.2 2.3-2l3.2-3.2c.2 0 .3-.3.5-.2v4.8c0 .3 0 .6-.3.8l-1.5 1.2c-1.4 1-2.7 2.3-4 3.6-.4.6-1 1-1.6 1.7l-1 .7c-.8 1-1.8 2-3 2.8 0 .5 0 1 .2 1.5h.2c.5-.7 1.2-1 1.7-1.7l3.2-3 3.2-3c.7-.8 1.4-1.3 2.2-2 .2 0 .5-.2.8 0v4.3l-2.3 2-1.3 1.2-1.6 1.5c-.7.7-1.6 1.3-2.5 2l-.4.3h2l2.6-2c0-.2.2-.3.3-.4.7-1 2-2 3-3h.3v3.5l-.7.6-1.3 1.3h1.5s.2-.3.6-.3v.3H45v-.3c.5-.2.6.3.6.3H47l-1.4-1.3-.7-.7c0-1 0-2.2-.2-3.2l.2-.4s.3 0 .3.2c1 1 2.2 1.8 3 3l.4.3c1 1 2.7 2 2.7 2H53s-.2 0-.3-.2l-2.6-2-1.5-1.5-1.3-1.3-2.3-2v-4.2c.2-.3.5 0 .7 0l2.2 1.8 3 3.3c1 1 2.2 2 3 3l1.7 1.6h.2c0-.7 0-1.3.2-2l-.3.3-3-2.6c0-.2-.4-.4-.6-.6l-1.8-1.6c-1.2-1.3-2.5-2.5-4-3.6l-1.3-1.2c-.3-.3-.4-.5-.4-1v-4.5zM117.5 24.7c-1.5-1.5-2.7-3.2-4-5-1.3-1.5-3-2.5-4-4.3-.2-.5-.6-.4-1-.2h-.3-.7c-.5.4-1.2.7-1.4 1.4-1 1-1.7 2.2-2.7 3l-1.6 1.8-2.6 3v.8h.2l2.7-2.7.3-.5.3-.3L105 19c.8-.6 1.4-1.3 2-2 0 0 .2-.2.4 0v5.3c0 .3 0 .5-.3.7l-.8.8c-1 .8-1.7 1.7-2.5 2.5l-1.7 1.4c-1 .8-1.7 1.6-2.5 2.4-.5.5-.6.8-.3 1.5.5-.5 1.2-1 1.6-1.6 0-.2.2-.3.2-.3.6-.3 1-.7 1.3-1l.6-.7 1.6-1.5L107 24h.4v8.5l-1.2 1-1.7 1.6c-.7 1-1.8 1.6-1.8 1.6h1.2l1-1 1.3-1.2 1-1v3.2h1.2v-3c.5.3 1 .5 1 .8l1.3 1c.3.5 1.2 1.2 1.2 1.2h1.2s-1-.7-1.7-1.5l-1.7-1.4c-.4-.4-.8-.8-1.2-1v-8.7h.4c.8 1 1.6 1.7 2.4 2.5L113 28l.7.6c.4.4.7.8 1.2 1 0 .2 0 .3.2.4.4.6 1 1 1.6 1.5.3-.7.2-1-.3-1.4L114 28l-1.7-1.5-2.5-2.5c-.2-.3-.5-.6-1-.8l-.2-.7V17c.2-.2.3-.2.3 0 .8 1.2 2 2.2 3 3.3 1.7 1.7 3 3.7 4.5 5.4.6.6 1.6-.3 1-1z"/></g></svg>