<?xml version="1.0" encoding="utf-8"?>
<!-- Generator: Adobe Illustrator 17.1.0, SVG Export Plug-In . SVG Version: 6.00 Build 0)  -->
<!DOCTYPE svg PUBLIC "-//W3C//DTD SVG 1.1//EN" "http://www.w3.org/Graphics/SVG/1.1/DTD/svg11.dtd">
<svg version="1.1" id="Layer_1" xmlns="http://www.w3.org/2000/svg" xmlns:xlink="http://www.w3.org/1999/xlink" x="0px" y="0px"
	 viewBox="0 0 116 68" enable-background="new 0 0 116 68" xml:space="preserve">
<path fill="#FFFFFF" d="M29.4,22.4H17.2l0-6.5l12.3-6.2V22.4z M39.8,30.2l6.8-6.8V0H29.4L17.2,6.2V1.8c0-1-0.8-1.8-1.8-1.8H9.7L0,5
	v39.8h17.2V33h5.3l8,11.7h19.3L39.8,30.2z"/>
<path fill="#FFFFFF" d="M89.5,9.6V0h-36v41.1c0,1.9,1.6,3.5,3.5,3.5h32.5V35H70.6v-7.9h18.9v-9.6H70.6V9.6H89.5z"/>
<path fill="#FFFFFF" d="M96.5,44.6h13.7c1.9,0,3.4-1.5,3.4-3.4V0H96.5V44.6z"/>
<path fill="#FFFFFF" d="M18.8,64.7v-9.9c0-0.1-0.1-0.2-0.2-0.2h-2.9c-0.1,0-0.2,0.1-0.2,0.2v9.9c0,0.1,0.1,0.2,0.2,0.2h2.9
	C18.7,64.9,18.8,64.8,18.8,64.7 M20.1,51.8l1.6,1.6c0.1,0.1,0.2,0.3,0.2,0.5v11.9c0,0.2-0.1,0.4-0.2,0.5l-1.6,1.5
	c-0.1,0.1-0.3,0.2-0.5,0.2h-6.9c-0.1,0-0.2-0.1-0.2-0.2V51.8c0-0.1,0.1-0.2,0.2-0.2h6.9C19.8,51.6,19.9,51.6,20.1,51.8"/>
<path fill="#FFFFFF" d="M29,60.7c0,0.1,0.1,0.1,0.1,0c0.4-1.9,0.8-3.4,1-4.5c0.3-1.1,0.6-2.6,1-4.4c0-0.1,0.1-0.2,0.2-0.2H34
	c0.1,0,0.3,0.1,0.2,0.3l-3.5,15.9c0,0.1-0.1,0.2-0.2,0.2h-2.7c-0.1,0-0.2-0.1-0.2-0.2L24,51.8c0-0.1,0.1-0.3,0.2-0.3h2.6
	c0.1,0,0.2,0.1,0.2,0.2c0.4,1.8,0.7,3.3,1,4.5C28.3,57.3,28.6,58.8,29,60.7"/>
<path fill="#FFFFFF" d="M67.2,54.6h-2.5c-0.1,0-0.2,0.1-0.2,0.2v12.9c0,0.1-0.1,0.2-0.2,0.2h-2.6c-0.1,0-0.2-0.1-0.2-0.2V54.8
	c0-0.1-0.1-0.2-0.2-0.2h-2.5c-0.1,0-0.2-0.1-0.2-0.2v-2.6c0-0.1,0.1-0.2,0.2-0.2h8.6c0.1,0,0.2,0.1,0.2,0.2v2.6
	C67.4,54.5,67.3,54.6,67.2,54.6"/>
<path fill="#FFFFFF" d="M78.8,66.2l-1.6,1.5c-0.1,0.1-0.3,0.2-0.5,0.2h-4.9c-0.2,0-0.4-0.1-0.5-0.2l-1.5-1.5
	c-0.1-0.1-0.2-0.3-0.2-0.5V51.8c0-0.1,0.1-0.2,0.2-0.2h2.6c0.1,0,0.2,0.1,0.2,0.2v12.9c0,0.1,0.1,0.2,0.2,0.2h2.9
	c0.1,0,0.2-0.1,0.2-0.2V51.8c0-0.1,0.1-0.2,0.2-0.2h2.6c0.1,0,0.2,0.1,0.2,0.2v13.9C79,65.9,78.9,66,78.8,66.2"/>
<path fill="#FFFFFF" d="M3,59.5v-4.7c0-0.1,0.1-0.2,0.2-0.2h2.9c0.1,0,0.2,0.1,0.2,0.2v4.7c0,0.1-0.1,0.2-0.2,0.2H3.2
	C3.1,59.7,3,59.6,3,59.5 M7.2,51.6H2.3c-0.2,0-0.4,0.1-0.5,0.2l-1.6,1.5C0.1,53.4,0,53.6,0,53.8v13.9c0,0.1,0.1,0.2,0.2,0.2h2.6
	c0.1,0,0.2-0.1,0.2-0.2V63c0-0.1,0.1-0.2,0.2-0.2h2.9c0.1,0,0.2,0.1,0.2,0.2v4.7c0,0.1,0.1,0.2,0.2,0.2h2.6c0.1,0,0.2-0.1,0.2-0.2
	V53.8c0-0.2-0.1-0.4-0.2-0.5l-1.5-1.5C7.6,51.6,7.4,51.6,7.2,51.6"/>
<path fill="#FFFFFF" d="M101.9,54.4v-2.6c0-0.1-0.1-0.2-0.2-0.2h-7.4c-0.1,0-0.2,0.1-0.2,0.2v15.9c0,0.1,0.1,0.2,0.2,0.2h7.4
	c0.1,0,0.2-0.1,0.2-0.2v-2.6c0-0.1-0.1-0.2-0.2-0.2h-4.3c-0.1,0-0.2-0.1-0.2-0.2v-3.2c0-0.1,0.1-0.2,0.2-0.2h3.5
	c0.1,0,0.2-0.1,0.2-0.2v-2.6c0-0.1-0.1-0.2-0.2-0.2h-3.5c-0.1,0-0.2-0.1-0.2-0.2v-3.2c0-0.1,0.1-0.2,0.2-0.2h4.3
	C101.8,54.6,101.9,54.5,101.9,54.4"/>
<path fill="#FFFFFF" d="M44.2,54.4v-2.6c0-0.1-0.1-0.2-0.2-0.2h-7.4c-0.1,0-0.2,0.1-0.2,0.2v15.9c0,0.1,0.1,0.2,0.2,0.2H44
	c0.1,0,0.2-0.1,0.2-0.2v-2.6c0-0.1-0.1-0.2-0.2-0.2h-4.3c-0.1,0-0.2-0.1-0.2-0.2v-3.2c0-0.1,0.1-0.2,0.2-0.2h3.2
	c0.1,0,0.2-0.1,0.2-0.2v-2.6c0-0.1-0.1-0.2-0.2-0.2h-3.2c-0.1,0-0.2-0.1-0.2-0.2v-3.2c0-0.1,0.1-0.2,0.2-0.2H44
	C44.1,54.6,44.2,54.5,44.2,54.4"/>
<path fill="#FFFFFF" d="M110.8,55.8h2.6c0.1,0,0.2-0.1,0.2-0.2v-1.8c0-0.2-0.1-0.4-0.2-0.5l-1.5-1.5c-0.1-0.1-0.3-0.2-0.5-0.2h-0.8
	h-3.9c-0.2,0-0.3,0.1-0.5,0.2l-1.5,1.3c-0.1,0.1-0.2,0.3-0.2,0.5v5.6c0,0.2,0.1,0.4,0.2,0.5l1.5,1.3c0.1,0.1,0.3,0.2,0.5,0.2h3.6
	c0.1,0,0.2,0.1,0.2,0.2v3.2c0,0.1-0.1,0.2-0.2,0.2h-2.6c-0.1,0-0.2-0.1-0.2-0.2v-0.8c0-0.1-0.1-0.2-0.2-0.2h-2.6
	c-0.1,0-0.2,0.1-0.2,0.2v1.8c0,0.2,0.1,0.4,0.2,0.5l1.5,1.5c0.1,0.1,0.3,0.2,0.5,0.2h4.7c0.2,0,0.3-0.1,0.5-0.2l1.5-1.3
	c0.1-0.1,0.2-0.3,0.2-0.5v-5.7c0-0.2-0.1-0.4-0.2-0.5l-1.5-1.3c-0.1-0.1-0.3-0.2-0.5-0.2h-3.7c-0.1,0-0.2-0.1-0.2-0.2v-3.2
	c0-0.1,0.1-0.2,0.2-0.2h2.6c0.1,0,0.2,0.1,0.2,0.2v0.8C110.5,55.7,110.7,55.8,110.8,55.8"/>
<path fill="#FFFFFF" d="M85.3,58.2h2.6c0.1,0,0.2-0.1,0.2-0.2v-3.2c0-0.1-0.1-0.2-0.2-0.2h-2.6c-0.1,0-0.2,0.1-0.2,0.2V58
	C85.1,58.1,85.2,58.2,85.3,58.2 M91.4,67.9h-2.7c-0.1,0-0.2-0.1-0.2-0.1l-2.5-6.4c0-0.1-0.1-0.1-0.2-0.1h-0.4
	c-0.1,0-0.2,0.1-0.2,0.2v6.2c0,0.1-0.1,0.2-0.2,0.2h-2.6c-0.1,0-0.2-0.1-0.2-0.2V51.8c0-0.1,0.1-0.2,0.2-0.2h6.7
	c0.2,0,0.4,0.1,0.5,0.2l1.5,1.5c0.1,0.1,0.2,0.3,0.2,0.5v5c0,0.2-0.1,0.4-0.2,0.5l-1.8,1.8c-0.1,0.1-0.1,0.2-0.1,0.2l2.4,6.3
	C91.6,67.7,91.5,67.9,91.4,67.9"/>
<path fill="#FFFFFF" d="M53.7,67.8l-3.8-9.3c0-0.1-0.1,0-0.1,0v9.2c0,0.1-0.1,0.2-0.2,0.2H47c-0.1,0-0.2-0.1-0.2-0.2V51.8
	c0-0.1,0.1-0.2,0.2-0.2h2.7c0.1,0,0.2,0.1,0.2,0.1l3.3,8.4c0,0.1,0.1,0,0.1,0v-8.3c0-0.1,0.1-0.2,0.2-0.2H56c0.1,0,0.2,0.1,0.2,0.2
	l0,15.9c0,0.1-0.1,0.2-0.2,0.2h-2.2C53.8,67.9,53.7,67.9,53.7,67.8"/>
</svg>
