<?xml version="1.0" encoding="utf-8"?>
<!-- Generator: Adobe Illustrator 17.1.0, SVG Export Plug-In . SVG Version: 6.00 Build 0)  -->
<!DOCTYPE svg PUBLIC "-//W3C//DTD SVG 1.1//EN" "http://www.w3.org/Graphics/SVG/1.1/DTD/svg11.dtd">
<svg version="1.1" id="Isolation_Mode" xmlns="http://www.w3.org/2000/svg" xmlns:xlink="http://www.w3.org/1999/xlink" x="0px"
	 y="0px" viewBox="0 0 61.902 68.822" enable-background="new 0 0 61.902 68.822" xml:space="preserve">
<g>
	<path fill-rule="evenodd" clip-rule="evenodd" fill="#A1C900" d="M52.51772,47.10495
		c2.59729,2.21179,5.18726,4.43298,7.78394,6.64679c0.64758,0.5531,0.7262,0.55042,1.60059,0.09399
		c-0.0697-0.42291-0.43823-0.6095-0.71802-0.85187c-2.71619-2.34399-5.44165-4.67664-8.15381-7.02533
		c-0.55566-0.48199-1.06445-1.01764-1.60071-1.52179c-0.1228-0.11542-0.27112-0.20203-0.41675-0.30811
		c-0.74829,0.44641-1.51013,0.79211-2.14368,1.36066c-0.31067,0.27991-0.68787,0.48602-1.03284,0.72833
		c-0.37317,0.26245-0.75513,0.51483-1.11414,0.79541c-1.52356,1.18884-3.03967,2.3877-4.56042,3.58118
		c-0.22083,0.1745-0.45569,0.33228-0.66309,0.52087c-0.12488,0.11346-0.2644,0.25983-0.29797,0.41284
		c-0.07861,0.36047-0.09668,0.7337-0.1416,1.11969c0.49792,0.09528,0.75427-0.24976,1.04297-0.46588
		c1.91602-1.43176,3.81738-2.88306,5.72681-4.32422c0.67322-0.50818,1.35303-1.00891,2.03564-1.50433
		c0.1322-0.09595,0.27112-0.24298,0.54626-0.06305c0.03699,0.7464,0.04102,1.54724,0.0376,2.34802
		c-0.00671,1.48346,0.21204,1.20221-1.06104,2.16681c-2.43896,1.84735-4.87195,3.7027-7.32825,5.52716
		c-0.63354,0.46985-0.94507,1.00354-0.72156,1.94464c0.44165-0.20276,0.82556-0.30743,1.12427-0.52759
		c2.5188-1.85809,5.02209-3.73627,7.5282-5.61108c0.13489-0.10004,0.23755-0.27386,0.50061-0.08728
		c0,0.5874,0.01208,1.21973-0.00195,1.85138c-0.01611,0.66187,0.08923,1.33173-0.06177,1.91443
		c-0.81604,0.62158-1.55969,1.20758-2.32422,1.76672c-1.30469,0.95453-2.62952,1.8822-3.93018,2.84412
		c-0.42017,0.31146-0.79529,0.68604-1.16846,1.05457c-0.06177,0.06042-0.03284,0.25775,0.01611,0.3645
		c0.02612,0.05701,0.20605,0.10266,0.27722,0.06976c0.34558-0.16644,0.68994-0.34302,1.01538-0.54773
		c1.90076-1.2002,3.79663-2.41113,5.698-3.6134c0.1095-0.06909,0.24902-0.0899,0.39734-0.14227
		c0.19336,0.37189,0.12354,0.72565,0.13025,1.06396c0.03625,1.93457,0.06042,3.86908,0.09729,5.80365
		c0.00671,0.34302-0.05774,0.70215,0.16577,1.05054h0.49731c0.18323-0.35577,0.11609-0.71289,0.11414-1.05792
		c-0.01147-2.25141-0.03296-4.50275-0.04163-6.75415c-0.00073-0.17523-0.0752-0.39874,0.19055-0.52563
		c0.34167,0.21619,0.66919,0.44843,0.97791,0.70349c0.27112,0.245,0.5376,0.49872,0.81812,0.73706
		c0.01611,0.0141,0.03223,0.02887,0.04834,0.0423c0.98987,0.96527,1.88049,2.0473,2.88721,2.99109
		c0.63025,0.59204,1.5813-0.35577,0.9491-0.94916c-1.76721-1.65735-3.19141-3.68652-5.33765-4.89679
		c-0.04907-0.02753-0.09668-0.03156-0.14502-0.04633c-0.12415-0.12152-0.24561-0.23901-0.37048-0.36047
		c-0.151-2.01514-0.10864-3.73956,0.11743-4.31287c0.57117,0.52228,1.14307,1.03442,1.70276,1.56006
		c2.10205,1.97546,4.19873,3.95636,6.30005,5.93188c0.17847,0.16779,0.36572,0.3316,0.56909,0.46649
		c0.12146,0.08057,0.2832,0.10339,0.47253,0.16718v-1.35394c-0.28455-0.27521-0.55835-0.54639-0.8396-0.80951
		c-2.33765-2.18762-4.67725-4.37128-7.01086-6.56226c-0.38452-0.36047-0.73889-0.75244-1.10864-1.12836
		c-0.18323-0.18665-0.27917-0.40747-0.25171-0.66724c0.04761-0.45044,0.07117-0.9082,0.17981-1.34387
		c0.04773-0.1886,0.00208-0.3269-0.01135-0.492c-0.0094-0.11615,0.05505-0.23767,0.08594-0.35376
		C52.04579,46.57267,52.25661,46.88346,52.51772,47.10495z"/>
	<path fill-rule="evenodd" clip-rule="evenodd" fill="#A1C900" d="M45.92958,31.90507
		c0.29053,0.24707,0.55103,0.52765,0.82751,0.7948c0.40332-0.60614,0.29858-1.21564-0.21875-1.59625
		c-0.42017-0.31012-0.78333-0.70081-1.21277-0.99481c-0.81213-0.55511-1.4303-1.32172-2.23157-1.90167
		c-1.07251-0.77795-2.16382-1.55127-3.08191-2.54272c-0.66516-0.71692-1.45312-1.3197-2.18188-1.97821
		c-0.49536-0.44702-0.98193-0.90216-1.48938-1.36932c-0.07642-2.50781-0.10132-5.02039-0.08044-7.57788l0.03894-2.66754
		l0.00134-0.05573c0.00537-0.25641,0.00732-0.50879,0.01404-0.7666c0.26172,0.1712,0.41345,0.23834,0.52417,0.34637
		c1.02954,1.0069,2.06506,2.00842,3.07117,3.03748c0.66443,0.67932,1.32349,1.3573,2.09802,1.91711
		c0.28247,0.20471,0.53015,0.46179,0.77783,0.70953c0.52148,0.51953,0.97388,1.11224,1.64502,1.46667
		c0.11743,0.06177,0.21008,0.18726,0.2926,0.29871c0.59131,0.79742,1.38184,1.37744,2.13623,2.01849
		c0.3302-0.95117,0.24231-1.27271-0.37915-1.83728c-1.08997-0.98938-2.15173-2.0097-3.24365-2.99579
		c-0.70337-0.63568-1.46655-1.20557-2.15369-1.85602c-1.09473-1.03644-2.14575-2.11853-3.22229-3.17371
		c-0.37378-0.36652-0.76099-0.72162-1.15906-1.06128c-0.20068-0.17047-0.3114-0.36517-0.36438-0.59137l0.10803-7.27106
		c0.17725-0.02618,0.27246,0.10938,0.36584,0.2074c0.79724,0.84106,1.58118,1.69562,2.37854,2.53668
		c1.08521,1.14581,2.17981,2.28296,3.26636,3.42609c0.12024,0.12689,0.22021,0.27319,0.32898,0.41083
		c0.17578,0.22015,0.33154,0.4585,0.52673,0.65851c1.15442,1.17938,2.3175,2.3501,3.47998,3.51941
		c0.01404,0.01544,0.0658-0.00537,0.15771-0.01746c0.10327-0.388,0.04968-0.7948,0.03223-1.14044
		c-1.17249-1.29218-2.30005-2.54077-3.43494-3.78192c-0.66248-0.72491-1.28857-1.49286-2.0188-2.14398
		c-1.29736-1.15723-2.26318-2.59375-3.41479-3.87116c-0.047-0.05237-0.12683-0.0899-0.14636-0.14966
		c-0.25098-0.7619-0.90735-1.10492-1.4939-1.51636l0.00061-0.06915c-0.07654-0.03894-0.15576-0.0705-0.23352-0.10474
		c-0.0376-0.02954-0.07727-0.05774-0.1134-0.08862c-0.10278-0.08655-0.29272-0.13959-0.4303-0.12012
		c-0.13684-0.03894-0.3584,0.0188-0.46973,0.1134c-0.04773,0.04028-0.09875,0.07721-0.14771,0.11481
		c-0.06775,0.02954-0.13416,0.05573-0.20068,0.08929l0.00073,0.05841c-0.58801,0.41077-1.24573,0.75244-1.49731,1.51367
		c-0.0188,0.05908-0.09875,0.09729-0.14563,0.14966c-1.15442,1.27472-2.12219,2.7099-3.42151,3.86511
		c-0.73157,0.64911-1.35913,1.41638-2.02283,2.13995c-1.13696,1.2392-2.26721,2.48572-3.44165,3.77655
		c-0.01819,0.34497-0.0719,0.75177,0.03015,1.13977c0.09265,0.01276,0.14294,0.03357,0.15845,0.01813
		c1.1637-1.16797,2.32886-2.336,3.48523-3.51337c0.19531-0.19934,0.35229-0.43768,0.5282-0.65784
		c0.10864-0.13696,0.20935-0.28326,0.32947-0.41016c1.08862-1.14111,2.1853-2.27625,3.27258-3.42004
		c0.79858-0.83972,1.58459-1.69293,2.38318-2.53265c0.10803-0.11414,0.2135-0.29535,0.45837-0.1886
		c0.02014,0.08319,0.06311,0.17853,0.06311,0.27319c-0.00537,2.21582-0.02148,4.43231-0.02014,6.6488
		c0.00073,0.38062-0.1134,0.67328-0.4054,0.92163c-0.39856,0.33899-0.78589,0.69342-1.16174,1.05927
		c-1.07776,1.05316-2.13013,2.13391-3.2268,3.16833c-0.6886,0.64911-1.45239,1.21765-2.15637,1.85199
		c-1.09399,0.98407-2.15784,2.00305-3.24902,2.99042c-0.6228,0.56323-0.71143,0.88477-0.38257,1.83594
		c0.75439-0.63971,1.547-1.21765,2.13965-2.01379c0.08252-0.11212,0.17517-0.23627,0.29321-0.29871
		c0.67188-0.35309,1.12488-0.94446,1.64697-1.46399c0.24902-0.24774,0.49597-0.50415,0.7793-0.70819
		c0.77515-0.55847,1.43555-1.23444,2.10132-1.91309c1.00805-1.02771,2.04565-2.02722,3.07654-3.0321
		c0.11145-0.10803,0.26245-0.17517,0.52478-0.3457c0.08862,3.78729,0.07117,7.42883-0.04565,11.06775
		c-0.50806,0.46649-0.99597,0.92029-1.49121,1.36664c-0.73022,0.65717-1.52014,1.25861-2.18591,1.97485
		c-0.91956,0.98944-2.01147,1.76074-3.08667,2.53668c-0.80127,0.57928-1.42212,1.34454-2.23425,1.89832
		c-0.43018,0.29333-0.79395,0.68335-1.21472,0.99213c-0.51746,0.37994-0.6228,0.98944-0.22144,1.59625
		c0.2771-0.26648,0.53748-0.54706,0.82947-0.79272c1.151-0.97198,2.30811-1.93658,3.47046-2.89514
		c0.62219-0.51355,1.23694-1.04114,1.89404-1.50568c0.52344-0.36981,0.96716-0.79944,1.38794-1.27875
		c0.46033-0.5249,0.98523-0.99408,1.50537-1.46332c0.37781-0.34235,0.79199-0.64441,1.30334-1.05725
		c0.02747,0.40948,0.06177,0.67462,0.05969,0.93976c-0.0094,1.26465-0.04419,2.5293-0.04016,3.79462
		c0.00793,1.89563,0.06433,3.79132,0.0603,5.68695c-0.00598,2.67023-0.36304,5.33112-0.2074,8.00806
		c0.05103,0.87537-0.02612,1.75806-0.03882,2.63739c-0.00342,0.24567-0.00403,0.49341,0.02612,0.73639
		c0.03149,0.25775,0.24426,0.40411,0.53088,0.40411c0.12891,0,0.23157-0.03491,0.31213-0.09534
		c0.07983,0.06512,0.18713,0.10065,0.32141,0.10132c0.28589,0.00073,0.49939-0.14563,0.53162-0.40338
		c0.02942-0.24231,0.02942-0.49005,0.02747-0.73572c-0.01208-0.87933-0.08728-1.7627-0.03491-2.63739
		c0.1604-2.67761-0.19128-5.3385-0.19397-8.00873c-0.00061-1.89563,0.05908-3.79132,0.06982-5.68695
		c0.00806-1.26465-0.02625-2.52997-0.03296-3.79462c-0.00195-0.26514,0.03296-0.53094,0.06116-0.93976
		c0.51074,0.41351,0.92419,0.71625,1.30261,1.05994c0.51819,0.46985,1.04297,0.94043,1.50281,1.466
		c0.42004,0.47998,0.86169,0.91028,1.38525,1.28076c0.65637,0.46588,1.27039,0.99347,1.89124,1.50903
		C43.62416,29.96519,44.77992,30.93247,45.92958,31.90507z"/>
	<path fill-rule="evenodd" clip-rule="evenodd" fill="#A1C900" d="M22.71352,34.50638
		c-1.1886-1.32642-3.06311-2.97839-4.22217-4.24505c-0.82825-0.90619-1.69604-1.77887-2.53223-2.67767
		c-0.45374-0.48865-0.88599-0.99683-1.31885-1.50427c-0.43359-0.50812-0.85437-1.02637-1.2832-1.54053
		c-0.11279-0.13495-0.27112-0.25037-0.33289-0.40479c-0.39734-0.9834-0.66846-0.52692-1.4248-1.16595
		c-0.10205,0.02484-0.19128,0.06378-0.2887,0.0946c-0.09521-0.03082-0.18579-0.06976-0.28784-0.0946
		c-0.75635,0.63904-1.02686,0.18256-1.42419,1.16595c-0.06238,0.15442-0.22144,0.26984-0.33423,0.40479
		c-0.42688,0.51416-0.84766,1.03241-1.2832,1.54053c-0.43225,0.50745-0.86377,1.01562-1.3175,1.50427
		c-0.83618,0.8988-1.70398,1.77148-2.53223,2.67767c-1.15906,1.26666-2.29529,2.55414-3.48389,3.88122
		c-0.00134,0.15033-0.01746,0.36182,0,0.56989c0.01538,0.18994-0.08923,0.4209,0.1886,0.5813
		c0.29724-0.26782,0.61072-0.53564,0.90674-0.82227c0.25159-0.24438,0.4906-0.50281,0.72278-0.7666
		c0.90002-1.0304,1.95703-1.9245,2.73022-3.06897c0.01807-0.02887,0.05103-0.04767,0.07446-0.07318
		c0.91553-0.96661,1.83691-1.92853,2.74365-2.90118c0.93628-1.00287,1.8551-2.01984,2.78796-3.02466
		c0.13293-0.14233-0.3772,0.58398-0.0564,0.31885c-0.01807,1.05585,0.03162,1.9151-0.03894,2.84076
		c-0.41675,0.42084-0.86108,0.86792-1.30469,1.31628c-0.86108,0.87268-1.87646,1.59558-2.54492,2.65417
		c-0.09338,0.14636-0.22827,0.26715-0.35706,0.38867c-0.94104,0.8941-1.88733,1.78418-2.82898,2.67828
		c-0.15161,0.14435-0.30396,0.29205-0.43884,0.45245c-0.54028,0.64172-1.05103,1.3103-1.61755,1.92853
		c-0.49524,0.53967-1.04761,1.0257-1.59119,1.55194c-0.01953,0.43701-0.07727,0.88672,0.11536,1.4137
		c0.37317-0.34772,0.71008-0.64172,1.0249-0.95856c0.69055-0.69543,1.42212-1.35864,2.03955-2.11383
		c0.93628-1.14313,1.86645-2.27954,3.04504-3.18915c0.19263-0.14832,0.35571-0.33899,0.52551-0.5155
		c1.16711-1.21094,2.19727-2.55279,3.47925-3.65436c0.12744-0.10938,0.23621-0.26984,0.47583-0.11877
		c-0.00671,0.99414-0.01416,2.01044-0.02087,3.07702c-1.05432,1.02771-2.13147,2.0769-3.2074,3.12738
		c-0.22546,0.22089-0.44763,0.44641-0.67249,0.66791c-0.52612,0.51624-1.01343,1.08276-1.58923,1.53918
		c-1.81543,1.44055-3.44702,3.0791-5.11755,4.65118C0.0154,43.61466,0.0154,43.61466,0.2422,44.08585
		c0.75903-0.63165,1.52087-1.24921,2.11682-2.04327c0.08252-0.11011,0.18384-0.22418,0.302-0.28729
		c0.5752-0.30341,0.96313-0.81226,1.40869-1.25861c0.29871-0.29803,0.58191-0.61957,0.91748-0.87067
		c0.79199-0.59473,1.50745-1.26666,2.15234-2.01306c0.94568-1.09216,1.99805-2.07355,3.0625-3.04553
		c0.11938-0.1087,0.22144-0.28461,0.43213-0.21478c0.03833,0.06311,0.1001,0.11884,0.10144,0.17651
		c0.02344,1.44257,0.03552,2.8844,0.06165,4.32697c0.00476,0.34973-0.13684,0.60883-0.39319,0.82159
		c-0.45911,0.38129-0.9115,0.77399-1.38464,1.13849c-1.33691,1.03235-2.56506,2.17688-3.69263,3.43683
		c-0.51208,0.57257-1.11816,1.06262-1.68457,1.5882c-0.23022,0.21411-0.47925,0.40948-0.69727,0.63501
		c-0.90002,0.93103-1.84705,1.81036-2.88733,2.67157c0.05505,0.43903-0.09192,0.92572,0.10742,1.37677
		c0.13757,0.00134,0.24353,0.02954,0.26709-0.00201c0.46313-0.62427,1.11145-1.0733,1.60742-1.64795
		c0.87781-1.02094,1.91211-1.85938,2.8772-2.77966c1.03821-0.99011,1.99255-2.06812,3.02954-3.05823
		C8.57924,42.4346,9.29054,41.913,9.9872,41.38071c0.2135-0.16315,0.48999-0.29871,0.80884-0.03156
		c-0.0094,1.29688-0.0188,2.62665-0.02759,3.97919c-0.72009,0.62836-1.43958,1.2439-2.14368,1.87689
		c-0.44287,0.39935-0.85974,0.82629-1.29187,1.23779c-0.50879,0.48328-0.99402,0.99548-1.53699,1.43646
		c-0.78857,0.64172-1.6228,1.22974-2.43286,1.84595c-0.13892,0.10608-0.26172,0.23499-0.3866,0.35913
		c-0.76917,0.75922-1.51685,1.54254-2.44031,2.12524c-0.13892,0.08722-0.30334,0.23761-0.32812,0.38055
		c-0.05371,0.30743-0.03296,0.62897-0.02222,0.94446c0.00269,0.08124,0.08521,0.16046,0.12622,0.23297
		c0.66443-0.56726,1.30396-1.10223,1.93152-1.65063c0.396-0.34705,0.77515-0.7149,1.16577-1.07001
		c0.18188-0.1651,0.3645-0.33026,0.55713-0.48193c1.07104-0.8465,2.14563-1.68756,3.2168-2.53467
		c0.10864-0.08661,0.21204-0.18732,0.29724-0.29803c0.82214-1.05994,1.88928-1.86945,2.85645-2.77972
		c0.09058-0.08521,0.21875-0.13019,0.36841-0.21747c0.05103,0.15845,0.10474,0.24969,0.10474,0.34167
		c-0.00134,1.01898-0.01013,2.03729-0.01672,3.09045c-0.2323,0.21216-0.46582,0.4256-0.69873,0.63837
		C7.912,52.7988,5.74623,54.81125,3.53883,56.7753c-0.94226,0.83777-1.82751,1.75-2.91003,2.42798
		c-0.48596,0.30542-0.46777,0.36652-0.23828,1.04919c0.27917,0.08722,0.54895,0.0899,0.80737-0.07452
		c0.44702-0.28125,0.85706-0.59741,1.23499-0.97736c0.86243-0.87061,1.71411-1.76947,2.6698-2.5293
		c1.62415-1.2915,3.10938-2.73071,4.63159-4.13159c0.1543-0.14233,0.30798-0.28796,0.47852-0.41217
		c0.15295-0.11279,0.24487-0.36383,0.56177-0.23828c0.09595,1.09412,0.04895,2.21246,0.03418,3.32806
		c-0.00269,0.18127-0.13623,0.40546-0.27917,0.53369c-0.44299,0.4007-0.9054,0.78131-1.38257,1.13843
		c-0.50745,0.3786-1.02686,0.73438-1.44897,1.21497c-0.16113,0.18396-0.36047,0.33832-0.55713,0.48334
		c-0.78992,0.58398-1.60266,1.14044-2.37915,1.74255c-0.802,0.62091-1.52283,1.33246-2.36853,1.91241
		c-0.73755,0.50684-1.3302,1.22504-1.98987,1.85199c-0.00269,0.35443-0.00537,0.72833-0.00879,1.2016
		c0.23694-0.11011,0.41138-0.15039,0.52954-0.25439c0.47449-0.41486,0.92151-0.86395,1.39868-1.27472
		c0.6134-0.52496,1.26111-1.00891,1.86645-1.54126c1.10742-0.974,2.19666-1.96741,3.44629-2.76624
		c0.26318-0.16846,0.52686-0.37122,0.7168-0.61554c0.59802-0.76123,1.44165-1.21564,2.17188-1.81036
		c0.03418-0.02887,0.12744,0.01477,0.23083,0.03021c0.151,0.42688,0.07983,0.88269,0.07312,1.32971
		c-0.00732,0.45715-0.05701,0.91296-0.06238,1.36938c-0.03149,2.60382-0.05505,5.20765-0.07849,7.81214
		c-0.00403,0.31549,0.00598,0.63232,0.02344,0.94714c0.00269,0.05701,0.06787,0.11139,0.12549,0.19733
		c0.03027,0.00403,0.06714,0.00806,0.09875,0.01208v0.09064c0.14026-0.01678,0.25903-0.03088,0.37573-0.04498
		c0.11816,0.0141,0.23767,0.0282,0.37659,0.04498v-0.09064c0.03284-0.00403,0.06775-0.00806,0.09937-0.01208
		c0.05627-0.08594,0.12341-0.14032,0.1261-0.19733c0.01685-0.31482,0.02625-0.63165,0.02356-0.94714
		c-0.02356-2.60449-0.04834-5.20832-0.07861-7.81214c-0.00671-0.45642-0.05627-0.91223-0.06299-1.36938
		c-0.00806-0.44702-0.07727-0.90283,0.07178-1.32971c0.104-0.01544,0.19666-0.05908,0.23218-0.03021
		c0.72888,0.59473,1.57458,1.04913,2.17053,1.81036c0.19189,0.24432,0.45361,0.44708,0.71875,0.61554
		c1.24768,0.79883,2.33826,1.79224,3.44641,2.76624c0.604,0.53235,1.25293,1.0163,1.86511,1.54126
		c0.47852,0.41077,0.92407,0.85987,1.39868,1.27472c0.11938,0.104,0.29321,0.14429,0.52942,0.25439
		c-0.00269-0.47327-0.00537-0.84717-0.00806-1.2016c-0.65906-0.62696-1.25293-1.34516-1.99121-1.85199
		c-0.84497-0.57996-1.56653-1.2915-2.36719-1.91241c-0.77576-0.60211-1.58862-1.15857-2.37915-1.74255
		c-0.198-0.14502-0.39734-0.29938-0.55713-0.48334c-0.42212-0.48059-0.94092-0.83636-1.44824-1.21497
		c-0.47852-0.35712-0.94165-0.73773-1.3833-1.13843c-0.14294-0.12823-0.27783-0.35242-0.27917-0.53369
		c-0.01404-1.1156-0.06177-2.23395,0.03418-3.32806c0.3175-0.12555,0.40881,0.12549,0.5625,0.23828
		c0.16907,0.12421,0.32214,0.26984,0.47717,0.41217c1.52148,1.40088,3.00671,2.84009,4.6322,4.13159
		c0.95569,0.75983,1.80676,1.65869,2.67053,2.5293c0.37585,0.37994,0.78662,0.69611,1.23352,0.97736
		c0.25916,0.16443,0.52954,0.16174,0.80872,0.07452c0.22888-0.68268,0.24768-0.74377-0.24023-1.04919
		c-1.08118-0.67798-1.96582-1.59021-2.90869-2.42798c-2.20874-1.96405-4.3739-3.9765-6.55652-5.96948
		c-0.23218-0.21277-0.4657-0.42621-0.69727-0.63837c-0.00806-1.05316-0.01611-2.07147-0.01746-3.09045
		c0-0.09198,0.05371-0.18323,0.104-0.34167c0.15039,0.08728,0.27917,0.13226,0.36914,0.21747
		c0.96777,0.91028,2.03357,1.71979,2.8551,2.77972c0.08521,0.11072,0.18921,0.21143,0.29932,0.29803
		c1.07044,0.84711,2.14563,1.68817,3.2168,2.53467c0.19263,0.15167,0.37451,0.31683,0.55566,0.48193
		c0.39062,0.3551,0.64502,0.95587,1.04028,1.30292c0.62817,0.5484,1.26782,1.08344,1.93225,1.65063
		c0.04089-0.07251,0.12354-0.15173,0.12622-0.23291c0.01001-0.31482,0.03149-0.63702-0.02222-0.94379
		c-0.02478-0.14368-0.18921-0.29401-0.32812-0.38129c-0.92419-0.58264-1.54639-1.59894-2.31482-2.35815
		c-0.12415-0.12415-0.24768-0.25305-0.3866-0.35913c-0.81006-0.61621-1.64368-1.20422-2.4342-1.84595
		c-0.54163-0.44098-1.02759-0.95319-1.53626-1.43646c-0.43152-0.4115-0.84973-0.83844-1.2926-1.23779
		c-0.7041-0.633-1.42358-1.24854-2.14307-1.87689c-0.0094-1.35254-0.0188-2.68231-0.02612-3.97919
		c0.31677-0.26715,0.59399-0.13159,0.80737,0.03156c0.69604,0.53229,1.40808,1.05389,2.04102,1.65601
		c1.03821,0.99011,1.99255,2.06812,3.02954,3.05823c0.96436,0.92029,1.90332,1.75201,2.78125,2.77295
		c0.4939,0.57465,1.14429,1.02368,1.6073,1.64795c0.02356,0.03156,0.12817,0.00269,0.26721,0.00201
		c0.19922-0.45105,0.05225-0.93774,0.1073-1.37738c-1.04163-0.8606-1.89124-1.73322-2.79199-2.66425
		c-0.21741-0.22552-0.46643-0.4209-0.69727-0.63501c-0.56506-0.52557-1.17053-1.01562-1.68323-1.5882
		c-1.12817-1.25995-2.35571-2.40448-3.69397-3.43683c-0.47314-0.3645-0.92419-0.7572-1.38391-1.13849
		c-0.25574-0.21277-0.39868-0.47186-0.39197-0.82159c0.02612-1.44257,0.0376-2.8844,0.06177-4.32697
		c0-0.05768,0.06238-0.1134,0.10071-0.17651c0.20935-0.06982,0.31335,0.10608,0.43152,0.21478
		c1.06445,0.97198,2.11816,1.95337,3.06311,3.04553c0.6449,0.7464,1.36035,1.41833,2.15234,2.01306
		c0.33557,0.2511,0.61877,0.57263,0.91614,0.87067c0.44556,0.44635,0.8335,0.9552,1.41077,1.25861
		c0.11804,0.06311,0.21741,0.17719,0.30127,0.28729c0.59534,0.79407,1.15503,1.38074,1.91418,2.01245
		c0.22681-0.47192,0.22681-0.47192,0.12012-1.39288c-1.6698-1.57208-3.09875-3.17975-4.91553-4.6203
		c-0.57385-0.45642-1.06177-1.02295-1.58728-1.53918c-0.22546-0.2215-0.4469-0.44702-0.67383-0.66791
		c-1.0752-1.05048-2.15234-2.09967-3.20605-3.12738c-0.00806-1.06659-0.01477-2.08288-0.02148-3.07702
		c0.24036-0.15106,0.34766,0.0094,0.47449,0.11877c1.28259,1.10156,2.31421,2.44342,3.48059,3.65436
		c0.17053,0.17651,0.33289,0.36719,0.52551,0.5155c1.17725,0.90961,2.10803,2.04602,3.04504,3.18915
		c0.61743,0.75519,1.349,1.4184,2.03955,2.11383c0.31348,0.31683,0.17725,0.45709,0.55103,0.80548
		c0.19128-0.52692,0.13489-0.97736,0.11548-1.41431c-0.54431-0.52563-0.6228-0.85858-1.11743-1.39825
		c-0.5658-0.61823-1.07727-1.2868-1.61755-1.92853c-0.13623-0.1604-0.2865-0.30811-0.43884-0.45245
		c-0.94238-0.8941-1.88794-1.78418-2.83032-2.67828c-0.12683-0.12152-0.26306-0.24231-0.35498-0.38867
		c-0.66846-1.05859-1.68457-1.78149-2.54565-2.65417c-0.44299-0.44836-0.88733-0.89545-1.30542-1.31628
		c-0.06982-0.92566-0.02014-1.78491-0.03821-2.84076c0.3208,0.26514-0.1886-0.46118-0.0564-0.31885
		c0.93225,1.00482,1.85242,2.02179,2.78662,3.02466c0.90869,0.97266,1.82886,1.93457,2.74365,2.90118
		c0.02344,0.02551,0.05774,0.04431,0.07654,0.07318c0.77307,1.14447,1.82812,2.03857,2.73022,3.06897
		c0.23083,0.26379,1.20862,0.88672,1.46033,1.13104c0.29602,0.28668,0.60938,0.5545,0.90674,0.82233
		c0.27783-0.16113,0.17322-0.39136,0.1886-0.5813C22.73097,34.86814,22.71486,34.65671,22.71352,34.50638z"/>
</g>
</svg>
