<?xml version="1.0" encoding="utf-8"?>
<!-- Generator: Adobe Illustrator 17.1.0, SVG Export Plug-In . SVG Version: 6.00 Build 0)  -->
<!DOCTYPE svg PUBLIC "-//W3C//DTD SVG 1.1//EN" "http://www.w3.org/Graphics/SVG/1.1/DTD/svg11.dtd">
<svg version="1.1" id="Layer_1" xmlns="http://www.w3.org/2000/svg" xmlns:xlink="http://www.w3.org/1999/xlink" x="0px" y="0px"
	 viewBox="0 0 117.645 36.64" enable-background="new 0 0 117.645 36.64" xml:space="preserve">
<g>
	<path fill="#A1C900" d="M85.06061,26.64302c-2.84833-2.46014-5.70605-4.90887-8.55438-7.36902
		c-0.52753-0.45514-1.02887-0.9411-1.59064-1.45868c-0.51947,0.30072-1.14764,0.49207-1.66644,0.93103
		c-0.50806,0.42896-1.07587,0.78809-1.61816,1.17743c-0.37048,0.26648-0.75299,0.51819-1.11005,0.80145
		c-0.99194,0.78473-1.96851,1.58954-2.96112,2.3736c-0.66241,0.52222-1.3396,1.02631-2.01746,1.52979
		c-0.32819,0.24231-0.56378,0.50409-0.51678,0.96124c0.02216,0.22015-0.06915,0.45172-0.12415,0.75916
		c0.21539-0.03491,0.36511-0.0188,0.46509-0.08185c0.29663-0.18665,0.57788-0.39941,0.8584-0.61084
		c2.41479-1.82117,4.82758-3.64563,7.24298-5.46674c0.24298-0.18262,0.50134-0.34369,0.73358-0.50281
		c0.08191,0.0658,0.12213,0.08124,0.13287,0.10876c0.20605,0.50073,0.03827,0.84778-0.39258,1.16595
		c-2.74432,2.02521-5.47656,4.06848-8.21082,6.10846c-0.3067,0.22821-0.60272,0.46991-0.92957,0.72632
		c0.12286,0.22284,0.26379,0.388,0.30206,0.57391c0.03687,0.17786-0.22083,0.38464,0.03149,0.56384
		c0.0705,0.00537,0.15369,0.03961,0.20135,0.01208c0.72821-0.42084,1.44434-0.85449,2.11078-1.37805
		c2.10132-1.65198,4.2215-3.27979,6.33899-4.91162c0.18115-0.13898,0.3396-0.38062,0.65436-0.23694v1.13574
		c-0.30072,0.23358-0.57452,0.45245-0.85437,0.66388c-2.5799,1.95203-5.15375,3.91345-7.74774,5.84668
		c-0.62213,0.46381-0.80066,1.00885-0.61206,1.74994c0.58051-0.01208,1.01074-0.28662,1.43488-0.60547
		c2.27722-1.71173,4.56183-3.41467,6.8457-5.117c0.27521-0.20538,0.56512-0.38867,0.90741-0.6236
		c0.15973,0.56183,0.13892,0.9693-0.29932,1.28345c-0.25708,0.1839-0.50537,0.38129-0.75909,0.57056
		c-2.4812,1.84998-4.96313,3.69867-7.44232,5.55066c-0.22552,0.16779-0.47852,0.32288-0.64026,0.54169
		c-0.13428,0.18262-0.17853,0.44708-0.2121,0.68201c-0.01477,0.10541,0.0946,0.22821,0.1604,0.37054
		c0.93219-0.32556,1.61676-0.95319,2.39935-1.40631c0.78656-0.45508,1.49799-1.03906,2.2403-1.56873
		c0.74561-0.53094,1.47717-1.07935,2.23486-1.59088c0.74634-0.50409,1.44299-1.09344,2.34705-1.50763v1.00421
		c-0.14227,0.12146-0.26917,0.24298-0.40942,0.34503c-1.39331,1.01422-2.78931,2.02448-4.18457,3.03607
		c-0.71143,0.51617-1.43225,1.02032-2.12958,1.55396c-0.30402,0.2323-0.56976,0.51758-0.8349,0.79547
		c-0.09998,0.10333-0.12415,0.26715,0.01141,0.37189c0.07251,0.05634,0.20874,0.10266,0.28186,0.07245
		c0.25775-0.10669,0.51678-0.22485,0.74634-0.38055c1.77319-1.20831,3.57318-2.37427,5.44434-3.42682
		c0.29529-0.16577,0.56714-0.37592,0.87988-0.58667c0.07245,0.16248,0.13824,0.24835,0.14697,0.34033
		c0.0141,0.13361-0.00269,0.25037-0.03894,0.35645c0.0188,0.04095,0.03021,0.08862,0.03021,0.14368v0.05768
		c0.11877,0.0376,0.21411,0.13696,0.21478,0.29938c0.00201,0.52362,0.01361,0.85321-0.00049,1.37341
		c0.01141,0.89679,0.02173,1.81268,0.02325,2.35944c0.00079,0.29688,0.01013,0.52118,0.01013,0.52118h0.73218
		c0,0-0.01434-0.39618-0.01544-1.16486c-0.00012-0.07581-0.06573-0.13965-0.05432-0.23096
		c0.02081-0.1651,0.03619-0.33093,0.05298-0.4967c-0.00067-0.24432-0.00134-0.42358-0.00201-0.51617
		c-0.00067-0.10742,0.00269-0.21149,0.05841-0.29871c0.02283-0.60284,0.00269-1.20496-0.10535-1.80371
		c-0.02014-0.1134,0.01343-0.20807,0.07178-0.28058c0-0.00201-0.00067-0.00336-0.00067-0.0047
		c-0.01611-0.06848-0.00739-0.12823,0.01007-0.18256c-0.07983-0.24237-0.07715-0.50885,0.05573-0.83911
		c0.24023,0.17456,0.47247,0.31549,0.67383,0.49139c1.27112,1.11157,2.5329,2.23328,3.80542,3.34351
		c0.2597,0.2276,0.47919,0.52295,0.86572,0.61151c0.26648-0.10602,0.37854-0.29602,0.22217-0.5672
		c-0.08521-0.14832-0.22748-0.26648-0.3537-0.38867c-1.01074-0.97803-2.02417-1.95404-3.03693-2.93134
		c-0.68323-0.65918-1.37183-1.31366-2.047-1.98224c-0.33691-0.33362-0.33289-0.44104-0.04163-1.02771
		c1.75238,1.53986,3.62891,2.91058,5.25378,4.56793c0.84363,0.86053,1.86981,1.48212,2.76843,2.2655
		c0.05103,0.04425,0.13019,0.09192,0.1886,0.08386c0.13086-0.01813,0.27655-0.04498,0.37787-0.12012
		c0.05371-0.04095,0.07184-0.22223,0.02753-0.28326c-0.18323-0.25311-0.37787-0.50348-0.60138-0.7196
		c-2.57922-2.49438-5.15302-4.99487-7.75708-7.46307c-0.57251-0.54169-0.59332-1.10553-0.41882-1.76605
		c0.29468-0.01746,0.41949,0.17181,0.56512,0.30878c2.46246,2.31116,4.92487,4.62225,7.37994,6.9408
		c0.30402,0.28662,0.60535,0.55914,1.04565,0.75452c0.13422-0.51825,0.09192-0.96057,0.05029-1.46875
		c-0.21143-0.19196-0.44763-0.4007-0.67786-0.61554c-2.70068-2.5199-5.39465-5.04651-8.10675-7.55365
		c-0.36444-0.33698-0.47247-0.65381-0.21344-1.16125c0.20874,0.17584,0.39331,0.32355,0.56915,0.48193
		c0.54559,0.49341,1.08319,0.9975,1.63422,1.48547c0.36847,0.32623,0.76379,0.62158,1.1322,0.94781
		c1.7121,1.51373,3.41748,3.0368,5.13092,4.5498c0.17786,0.15643,0.39398,0.26849,0.58527,0.39673
		c0.43622-0.46655,0.46173-0.58734,0.17786-0.89008c-0.19263-0.20477-0.40674-0.38934-0.61346-0.57996
		c-2.6369-2.43335-5.27454-4.8653-7.91077-7.29932c-0.23224-0.21478-0.46643-0.43024-0.66711-0.67255
		c-0.06714-0.08057-0.03424-0.24438-0.0517-0.41553c0.46039,0.03961,0.67786,0.3363,0.93427,0.55444
		c2.62146,2.23798,5.23761,4.48334,7.8598,6.72064c0.63824,0.54504,0.72815,0.54169,1.59528,0.08191
		C85.7157,27.06593,85.34119,26.88539,85.06061,26.64302z"/>
	<path fill="#A1C900" d="M98.13202,7.11214c-2.17889-1.88037-4.3653-3.75159-6.54102-5.63574
		c-0.44574-0.38666-0.85382-0.81635-1.284-1.22076c-0.09857-0.09259-0.21759-0.16211-0.33441-0.24713
		c-0.60028,0.35803-1.21136,0.63538-1.7196,1.09149c-0.24927,0.22455-0.55182,0.38989-0.82855,0.58423
		c-0.29938,0.21057-0.60571,0.41303-0.89374,0.63812c-1.22223,0.95367-2.43842,1.91541-3.65845,2.8728
		c-0.17706,0.14001-0.36554,0.26654-0.53192,0.41785c-0.1001,0.09106-0.2121,0.20844-0.23901,0.33118
		c-0.06305,0.28918-0.07758,0.58856-0.11359,0.89819c0.39948,0.07648,0.6051-0.20032,0.83667-0.37366
		c1.53705-1.14862,3.06232-2.31281,4.59406-3.46893c0.54004-0.40765,1.08545-0.80939,1.633-1.20679
		c0.10602-0.07697,0.21747-0.19489,0.43823-0.0506c0.02966,0.59882,0.03284,1.24121,0.03015,1.88361
		c-0.00537,1.19006,0.1701,0.96442-0.8512,1.73822c-1.95654,1.48193-3.9082,2.97028-5.87872,4.4339
		c-0.50824,0.37695-0.75806,0.80505-0.5788,1.56c0.35431-0.16266,0.66223-0.24664,0.90186-0.42328
		c2.02057-1.49054,4.02875-2.99719,6.03912-4.50116c0.10828-0.08026,0.19061-0.21973,0.40161-0.07001
		c0,0.47119,0.0097,0.97845-0.00159,1.48517c-0.01288,0.53094,0.07166,1.0683-0.0495,1.53571
		c-0.26324,0.20032-0.51251,0.39313-0.76184,0.58478c-2.00714,1.1109-3.98682,2.31281-5.60199,3.95251
		c-0.48724,0.49487,0.2735,1.25677,0.76129,0.76141c0.5556-0.56323,1.15967-1.06781,1.79071-1.5379
		c1.06653-0.67688,2.13416-1.35486,3.20178-2.03064c0.14429-0.08075,0.28809-0.15991,0.43237-0.23962
		c0.05115-0.01562,0.10602-0.0296,0.1626-0.04956c0.15503,0.29834,0.09906,0.58215,0.10443,0.85352
		c0.02905,1.55194,0.04846,3.10382,0.07806,4.6557c0.00543,0.27521-0.04626,0.56329,0.133,0.84277h0.39899
		c0.14697-0.2854,0.09308-0.5719,0.09149-0.84869c-0.00916-1.80603-0.02637-3.61212-0.03339-5.41821
		c-0.00055-0.15131-0.07428-0.34894,0.20355-0.44421c0.49634,0.32306,0.92059,0.77917,1.39014,1.17816
		c0.47266,0.40228,0.92493,0.82874,1.40033,1.22778c0.47162,0.39575,0.87598,0.87555,1.41382,1.16364
		c0.25952-0.09424,0.35803-0.25525,0.21265-0.46307c-0.12708-0.18256-0.30524-0.33063-0.46729-0.48785
		c-1.37238-1.33545-2.74585-2.66925-4.13867-4.02307c-0.12115-1.61652-0.08722-2.99988,0.09418-3.45972
		c0.45819,0.41895,0.91693,0.82977,1.36591,1.25146c1.68628,1.58472,3.36823,3.17377,5.05396,4.75854
		c0.14319,0.13464,0.2934,0.26599,0.45654,0.37427c0.09747,0.06458,0.22717,0.08289,0.37903,0.13403V11.0345
		c-0.22827-0.22083-0.44794-0.43835-0.67352-0.64941c-1.87524-1.75494-3.75208-3.50665-5.62408-5.26422
		c-0.30847-0.28918-0.59271-0.60364-0.8894-0.90521c-0.14697-0.14972-0.22394-0.32684-0.2019-0.53528
		c0.03821-0.36133,0.05707-0.72858,0.14429-1.078c0.03821-0.15131,0.00159-0.26227-0.00916-0.39471
		c-0.00757-0.09314,0.04419-0.19067,0.06891-0.28381c0.36182,0.03717,0.53088,0.2865,0.74036,0.46417
		c2.08356,1.77435,4.16119,3.55615,6.24426,5.33209c0.51953,0.44373,0.58258,0.44153,1.28406,0.07538
		C98.6521,7.45625,98.35651,7.30653,98.13202,7.11214z"/>
	<path fill="#A1C900" d="M28.63586,7.63826c-1.40479-1.21234-2.81445-2.41876-4.21716-3.63354
		c-0.28735-0.24927-0.55048-0.52631-0.82782-0.78705c-0.06354-0.05969-0.14026-0.10449-0.21558-0.15936
		c-0.38702,0.2309-0.78101,0.40967-1.1087,0.70374c-0.16071,0.14478-0.35577,0.2514-0.53418,0.37671
		c-0.19305,0.13574-0.39056,0.2663-0.57623,0.41138c-0.78796,0.61487-1.57214,1.23492-2.3587,1.85217
		c-0.11414,0.09027-0.23566,0.17188-0.3429,0.26941c-0.06458,0.05872-0.13678,0.1344-0.15411,0.2135
		c-0.04065,0.18646-0.05005,0.37946-0.07324,0.5791c0.25757,0.04932,0.39014-0.12915,0.53943-0.24091
		c0.99097-0.74054,1.97437-1.49115,2.96191-2.23651c0.34814-0.26282,0.69977-0.52179,1.0528-0.77802
		c0.06836-0.04968,0.1402-0.12567,0.28253-0.03265c0.0191,0.38605,0.02124,0.80023,0.01947,1.21442
		c-0.00348,0.76727,0.10968,0.62177-0.54877,1.12067c-1.26147,0.95544-2.51978,1.91504-3.79016,2.85864
		c-0.3277,0.24304-0.48877,0.51904-0.37317,1.0058c0.22839-0.10486,0.42694-0.15906,0.58142-0.27289
		c1.30273-0.961,2.59747-1.93237,3.89355-2.90204c0.06982-0.05176,0.12292-0.14166,0.25897-0.04517
		c0,0.30383,0.00623,0.63086-0.00104,0.95752c-0.0083,0.34235,0.0462,0.68878-0.03192,0.99017
		c-0.03088,0.02356-0.05902,0.04547-0.08954,0.06836c-1.29303,0.8905-2.79883,1.50153-3.88843,2.65869
		c-0.30688,0.32562,0.18329,0.81757,0.49084,0.49091c0.14197-0.1507,0.29224-0.29132,0.44775-0.42426
		c0.94208-0.5954,1.88171-1.19531,2.82416-1.79108c0.05658-0.03577,0.12878-0.04651,0.20551-0.07361
		c0.09998,0.19232,0.06384,0.37531,0.06732,0.55029c0.01874,1.00055,0.03125,2.0011,0.05035,3.00165
		c0.00348,0.17743-0.02985,0.36316,0.08575,0.54333h0.2572c0.09473-0.18402,0.06-0.36871,0.05896-0.54718
		c-0.00586-1.16443-0.01697-2.3288-0.02148-3.49323c-0.00037-0.0976-0.04791-0.22498,0.13123-0.28644
		c0.32001,0.20831,0.59357,0.50238,0.89624,0.75964c0.30475,0.25934,0.59631,0.5343,0.90283,0.7915
		c0.30408,0.25519,0.56476,0.56451,0.91156,0.75024c0.0069-0.00208,0.01074-0.00586,0.01697-0.00867
		c0.32697,0.25867,0.78589-0.20898,0.46515-0.50653c-1.00909-0.93597-2.12366-1.77228-2.98071-2.85931
		c-0.10443-0.13263-0.2381-0.14478-0.35059-0.09027c-0.05621-0.92834-0.02948-1.70111,0.07739-1.97266
		c0.29541,0.27014,0.59119,0.53503,0.88068,0.80688c1.08716,1.02173,2.17157,2.0462,3.25836,3.06793
		c0.09235,0.08679,0.18921,0.17151,0.29437,0.24133c0.06281,0.04163,0.14648,0.05347,0.24432,0.08643v-0.70026
		c-0.14716-0.14233-0.28876-0.28259-0.4342-0.4187c-1.20898-1.13141-2.41907-2.2608-3.62598-3.39398
		c-0.19891-0.1864-0.38214-0.38916-0.57343-0.58356c-0.09479-0.09656-0.14441-0.21075-0.13019-0.34509
		c0.02466-0.23297,0.0368-0.46973,0.09302-0.69507c0.02466-0.09753,0.00104-0.16907-0.00592-0.25446
		c-0.00482-0.06006,0.0285-0.12292,0.04449-0.18298c0.23322,0.02399,0.34222,0.18469,0.47729,0.29926
		c1.34332,1.14398,2.6828,2.29272,4.02582,3.43774c0.33496,0.28607,0.37561,0.28467,0.82788,0.04858
		C28.97119,7.86012,28.78058,7.76357,28.63586,7.63826z"/>
	<path fill="#A1C900" d="M11.36047,19.94203h-0.18048c-3.45978,2.52533-6.93903,5.02509-10.35583,7.60742
		c-0.43353,0.32758-0.54498,1.08337-0.80737,1.64117c0.12347,0.10541,0.24634,0.2088,0.36981,0.31348
		c3.4101-2.4212,6.68665-5.03644,10.13562-7.51202c0.42688,0.84174-0.02747,1.22034-0.52551,1.5882
		c-2.67987,1.97888-5.35706,3.96045-8.0376,5.9386C1.30872,29.99818,0.65234,30.4687,0,30.94331v0.18054
		c0.1369,0.33563,0.27454,0.67261,0.46844,1.14655c0.24567-0.11548,0.60944-0.2182,0.89197-0.42963
		c2.84161-2.11646,5.66919-4.2511,8.50208-6.37964c0.22687-0.17047,0.46313-0.32825,0.77454-0.5484
		c0.25769,0.85449,0.1792,1.40088-0.50201,1.901c-2.95172,2.17017-5.86853,4.39001-8.80414,6.58368
		c-0.67114,0.50146-1.1228,1.07336-0.79327,2.19971c0.58997-0.30743,1.16309-0.52222,1.63892-0.86926
		c2.45172-1.78619,4.87726-3.61005,7.31616-5.4137c0.37585-0.27789,0.77789-0.51953,1.19598-0.79742
		c0.33759,0.82092-0.10065,1.20422-0.60468,1.57745C7.08936,32.308,1.30255,36.5948,1.30255,36.5948h1.8493
		c0,0,3.94818-2.7879,7.46973-4.83795c0.36108,0.76929,0.04028,1.17743-0.49799,1.56067
		c-2.22485,1.58752-4.54242,3.27728-4.54242,3.27728h1.89789c0,0,1.35248-0.72009,2.53778-1.44067
		c0.1701-0.10339,0.35773-0.17792,0.55237-0.27252c0.2973,0.70209-0.01019,0.9079-0.42145,1.2981
		c-0.08716,0.08276-0.08868,0.4151-0.08868,0.4151h2.3125c0,0,0.10168-0.43048-0.12518-0.69159
		c-0.28992-0.33362-0.39325-0.82898-0.58185-1.24921c0.09729-0.06714,0.19727-0.13422,0.29462-0.20068
		c0.31946,0.23761,0.65668,0.45465,0.95569,0.71625c0.90448,0.79132,1.59845,1.42523,1.59845,1.42523h1.48517
		c0,0-2.00372-1.92871-3.78363-3.63098c-0.37042-0.35309-0.68591-0.69879-0.15503-1.25128
		c1.62286,1.37811,2.81921,2.43585,4.45526,3.79773c0.61505,0.51196,1.31482,1.08453,1.31482,1.08453h1.74762
		c0,0-0.6524-0.62714-0.88385-0.84613c-2.33093-2.20508-4.13916-3.84009-6.48016-6.03644
		c-0.52411-0.49139-0.6369-1.11096-0.31073-1.99768c3.29669,3.06226,9.84882,8.88025,9.84882,8.88025
		s0.30835-1.39502-0.39032-2.02936c-3.02289-2.74683-6.01752-5.52515-8.99603-8.31891
		c-0.33759-0.31616-0.5141-0.80219-0.76514-1.20966c0.104-0.07648,0.20807-0.15369,0.31073-0.23022
		c3.31146,2.88843,6.62421,5.77753,9.92291,8.65588c0.90271-0.5766,0.37585-0.974-0.04767-1.36267
		c-3.05371-2.80383-6.11279-5.60028-9.16248-8.40747c-0.29327-0.26984-0.53961-0.59003-0.80872-0.88745
		c0.05432-0.06976,0.1087-0.13959,0.16309-0.20941c0.27179,0.17657,0.56909,0.32355,0.81006,0.53497
		c2.73358,2.38971,5.47791,4.76794,8.17322,7.19995c0.78455,0.70752,1.50134,1.15253,2.47992,0.43225V30.4023
		c-3.81549-3.27643-7.633-6.55219-11.44641-9.83191C11.7699,20.37636,11.57056,20.15218,11.36047,19.94203z"/>
	<path fill="#A1C900" d="M45.03516,17.95454c0.22083-0.07385,0.3302,0.11212,0.45367,0.2262
		c1.12219,1.02368,2.23157,2.05743,3.2262,3.20862c0.68054,0.78607,1.43359,1.49359,2.26715,2.11987
		c0.35437,0.26514,0.65234,0.60345,0.96509,0.91693c0.47119,0.47052,0.87988,1.00623,1.48529,1.32642
		c0.12482,0.06573,0.23083,0.18524,0.31879,0.30139c0.56982,0.7605,1.28589,1.36664,2.01074,1.97076
		c0.0235,0.05371,0.05103,0.11212,0.08392,0.18195c0.02209-0.0188,0.04425-0.0376,0.06708-0.05573l0.06647,0.0564
		c0.03357-0.06982,0.06104-0.12823,0.08521-0.18195c0.06378-0.05231,0.12555-0.10669,0.18793-0.15906
		c-0.00134-0.539-0.00269-1.07739-0.00537-1.61572c-0.11005,0.10339-0.22009,0.2074-0.3302,0.30945
		c-1.69263-1.60095-3.35638-3.25696-5.20068-4.71893c-0.60541-0.48132-1.11816-1.07806-1.67249-1.62177
		c-0.23694-0.23425-0.47052-0.47119-0.7074-0.70349c-1.13428-1.10687-2.26782-2.21179-3.37927-3.29382
		c-0.00665-1.12372-0.01471-2.1944-0.02142-3.24084c0.25165-0.15979,0.36572,0.0094,0.50067,0.12415
		c1.349,1.16064,2.43555,2.57361,3.66443,3.84967c0.1792,0.18665,0.35101,0.38666,0.55304,0.54309
		c1.24097,0.95789,2.22083,2.1554,3.20807,3.35895c0.65033,0.79614,1.42017,1.49487,2.14764,2.22656
		c0.20404,0.20538,0.42084,0.40546,0.64703,0.61151c0.02148,0.12823,0.05432,0.26044,0.10266,0.3974
		c0.05774-0.05304,0.10938-0.09937,0.16577-0.15039c0.0564,0.0517,0.10736,0.09802,0.1651,0.15173
		c0.04968-0.13763,0.08325-0.26917,0.10541-0.39673c0.01068-0.0094,0.02008-0.0188,0.02948-0.0282
		c-0.00403-0.53363-0.00537-1.06793-0.01276-1.60162c-0.09393,0.08997-0.18585,0.1806-0.28253,0.27051
		c-0.47986-0.45374-0.95837-0.89276-1.39532-1.36798c-0.59595-0.65112-1.13422-1.35529-1.70404-2.03192
		c-0.14093-0.16779-0.30066-0.32422-0.46173-0.47656c-0.99261-0.9411-1.98926-1.87823-2.97992-2.82135
		c-0.13422-0.1275-0.27783-0.25507-0.37445-0.40808c-0.70471-1.11566-1.77521-1.87683-2.68127-2.79651
		c-0.46643-0.47186-0.93488-0.94244-1.37518-1.38611c-0.07446-0.97534-0.02075-1.88019-0.04022-2.99249
		c0.33826,0.27991,0.5141,0.39606,0.65234,0.54578c0.98322,1.0592,1.95233,2.12921,2.93628,3.18579
		c0.95636,1.02496,1.92749,2.0379,2.88995,3.05554c0.02551,0.02686,0.06036,0.04767,0.07916,0.07788
		c0.81476,1.20557,1.92688,2.14667,2.8772,3.23212c0.24298,0.27856,0.4953,0.55109,0.75977,0.80817
		c0.16107,0.1557,0.32819,0.30005,0.4953,0.4491c-0.00873,0.14764,0,0.29803,0.20001,0.41614
		c0.04297-0.03827,0.08722-0.07916,0.13019-0.11676c0.04297,0.03827,0.08795,0.07849,0.12952,0.11743
		c0.04163-0.02417,0.07251-0.04968,0.09802-0.07654c-0.00336-0.17584-0.00739-0.35236-0.01141-0.52826
		c-0.0517-0.34436-0.10406-0.68939-0.15436-1.03442c-0.01947,0.02081-0.03827,0.04163-0.05707,0.06311
		c-1.13489-1.26868-2.23224-2.50781-3.34497-3.72479c-0.87317-0.95453-1.78662-1.87347-2.66785-2.82129
		c-0.47784-0.51355-0.93219-1.04919-1.38928-1.58282c-0.45636-0.53638-0.90063-1.08276-1.35101-1.62311
		c-0.1181-0.14233-0.28455-0.26379-0.35034-0.42694c-0.41809-1.03577-1.41742-1.43646-2.21344-2.10974
		c-0.18921,0.04633-0.36774,0.10339-0.54022,0.16644c-0.10474-0.03357-0.20538-0.07178-0.31616-0.0993
		c-0.79999,0.66858-1.80133,1.0639-2.22614,2.09698c-0.0658,0.16315-0.23291,0.28259-0.35236,0.42493
		c-0.45441,0.53766-0.90137,1.08136-1.36041,1.61438c-0.46045,0.53162-0.91748,1.0639-1.39868,1.57544
		c-0.88727,0.94177-1.80676,1.85535-2.68457,2.8045c-1.22821,1.32709-2.43225,2.67627-3.69336,4.06647
		c-0.00201,0.15845-0.02014,0.38062-0.00336,0.6001c0.0141,0.20074-0.09729,0.44238,0.19531,0.6142
		c0.31342-0.28058,0.6463-0.56049,0.95972-0.86053c0.26648-0.25507,0.52014-0.52625,0.76379-0.80353
		c0.95703-1.07935,2.0752-2.01373,2.89801-3.21527c0.0188-0.03021,0.05304-0.05035,0.07922-0.07654
		c0.96844-1.01227,1.94495-2.01917,2.90735-3.03882c0.99066-1.05048,1.96649-2.11511,2.95508-3.16833
		c0.13959-0.14832,0.31677-0.26379,0.65637-0.54102c-0.02551,1.11163,0.02216,2.01648-0.05902,2.99182
		c-0.44165,0.44031-0.91345,0.90887-1.38257,1.37738c-0.91144,0.91425-1.9873,1.66876-2.698,2.7804
		c-0.09735,0.15302-0.24164,0.27991-0.37653,0.40607c-0.99731,0.93707-1.99872,1.8681-2.99805,2.80383
		c-0.15973,0.15106-0.3208,0.30682-0.46375,0.47394c-0.57385,0.67261-1.11609,1.37341-1.71613,2.02118
		c-0.52551,0.56586-1.11005,1.07397-1.68591,1.62445c-0.0235,0.45978-0.08588,0.93439,0.11206,1.49017
		c0.396-0.3645,0.75372-0.67194,1.08661-1.00354c0.73157-0.72699,1.50604-1.42175,2.16174-2.21313
		c0.99329-1.19885,1.98059-2.39038,3.22687-3.34021c0.20337-0.15503,0.37653-0.35437,0.55573-0.53967
		c1.23761-1.26868,2.33221-2.6756,3.68726-3.82751c0.13629-0.11475,0.25037-0.28326,0.50208-0.12146
		c-0.01276,1.04645-0.02686,2.11646-0.04095,3.24011c-1.11682,1.07538-2.25708,2.17358-3.39801,3.27374
		c-0.23895,0.2309-0.47388,0.46655-0.7121,0.69946c-0.55707,0.54034-1.07452,1.1344-1.68256,1.61169
		c-1.92218,1.50494-3.64972,3.2207-5.41815,4.86664c-0.11816,0.96991-0.11816,0.96991,0.1181,1.46802
		c0.802-0.66052,1.6087-1.30695,2.24097-2.13928c0.08789-0.11615,0.19397-0.23499,0.32013-0.30005
		c0.60736-0.31683,1.02014-0.84985,1.49329-1.31769c0.31476-0.31146,0.61475-0.64777,0.97046-0.91089
		c0.83691-0.62158,1.59534-1.3244,2.27924-2.10645c1.00269-1.14514,2.11749-2.17285,3.245-3.18915
		c0.12482-0.11407,0.2356-0.29871,0.45569-0.22418c0.03894,0.06781,0.10541,0.12689,0.10541,0.18726
		c0.01611,1.5191,0.01947,3.03815,0.03821,4.55786c0.00403,0.36853-0.14764,0.64038-0.41876,0.86322
		c-0.48657,0.39874-0.96442,0.8089-1.46509,1.19086c-1.41547,1.07867-2.71619,2.27551-3.91217,3.59589
		c-0.54291,0.6001-1.1839,1.1123-1.78253,1.66272c-0.24432,0.22418-0.50739,0.42761-0.73895,0.66455
		c-0.95435,0.97467-1.95703,1.89563-3.05908,2.7951c0.05573,0.4632-0.10266,0.97534,0.10474,1.45129
		c0.14563,0.00201,0.25702,0.03284,0.28186,0c0.49194-0.65515,1.17853-1.12372,1.70337-1.72583
		c0.93152-1.07001,2.02618-1.94666,3.04834-2.90991c1.09869-1.03711,2.11078-2.16614,3.21008-3.2019
		c0.66913-0.63165,1.42352-1.17603,2.15912-1.73181c0.22681-0.17053,0.51874-0.31146,0.85236-0.0282
		c-0.01746,1.36597-0.03558,2.76624-0.05438,4.19067c-0.76111,0.65717-1.5235,1.30157-2.26715,1.96338
		c-0.47046,0.41754-0.91272,0.8653-1.37048,1.29553c-0.53827,0.50616-1.05304,1.04248-1.62683,1.50366
		c-0.83557,0.67126-1.71747,1.28546-2.5752,1.9292c-0.14697,0.11072-0.40942,0.35907-0.40942,0.35907h1.76788
		c0,0,1.54358-1.23511,2.67645-2.12048c0.11481-0.09064,0.22485-0.19531,0.31543-0.31146
		c0.87317-1.11157,2.00073-1.95807,3.0249-2.91058c0.09662-0.08923,0.23016-0.13623,0.39056-0.22687
		c0.0517,0.16644,0.10809,0.26379,0.10742,0.36115c-0.00739,1.07263-0.0235,2.14532-0.03693,3.25494
		c-0.24634,0.2215-0.49353,0.4455-0.73962,0.66785c-0.60596,0.54736-1.35931,1.28546-1.35931,1.28546h1.5188
		c0,0,0.24548-0.32294,0.57812-0.36493c0.12372-0.01562,0.10938,0.36493,0.10938,0.36493h1.30524
		c0,0-0.03925-0.25818,0.16351-0.36493c0.31732-0.16705,0.47699,0.36493,0.47699,0.36493h0.28864h1.34125l-1.43866-1.3465
		c-0.24432-0.22491-0.4906-0.4491-0.73425-0.67261c-0.00806-1.10962-0.01746-2.18225-0.0188-3.25494
		c0-0.09735,0.05707-0.19397,0.10938-0.3598c0.15979,0.09064,0.29333,0.13831,0.38928,0.22888
		c1.0188,0.95856,2.14166,1.8111,3.00812,2.92804c0.08923,0.11682,0.19861,0.22223,0.31342,0.31348
		c1.12683,0.89209,2.69696,2.16345,2.69696,2.16345h1.73395c0,0-0.26044-0.26648-0.40674-0.37787
		c-0.85437-0.64911-1.73157-1.26868-2.56378-1.94464c-0.5705-0.46521-1.08258-1.00354-1.6181-1.51306
		c-0.45441-0.43292-0.89532-0.88336-1.36176-1.30353c-0.74097-0.66656-1.49872-1.31567-2.25641-1.97754
		c-0.01007-1.42377-0.01947-2.82465-0.0282-4.19067c0.33423-0.28125,0.62482-0.13898,0.85101,0.0329
		c0.73291,0.56116,1.48322,1.10956,2.14899,1.74524c1.09332,1.04181,2.09869,2.17761,3.19135,3.2207
		c1.01678,0.9693,2.10602,1.85266,3.03021,2.92804c0.49396,0.57324,1.12817,1.03241,1.60938,1.63721
		c0.01074,0.0329,0.01208,0.06647,0.02618,0.09937c0.04901,0.00067,0.08527,0.00537,0.12488,0.00873
		c0.01538,0,0.02478,0.0047,0.04492,0.00336c0.02081,0.00201,0.02954-0.00336,0.04565-0.00269
		c0.0047-0.00067,0.0094-0.00067,0.0141-0.00134c0.07983-0.65247,0.16107-1.30627,0.24164-1.95874
		c-0.10071,0.08521-0.19397,0.17316-0.29669,0.25842c-0.98456-0.82965-1.89935-1.67682-2.76373-2.57092
		c-0.23022-0.23761-0.49133-0.44305-0.73492-0.66858c-0.59467-0.55377-1.23358-1.07001-1.77252-1.67346
		c-1.1886-1.3277-2.48254-2.53198-3.8913-3.61871c-0.49799-0.38531-0.97314-0.79816-1.4577-1.19952
		c-0.26917-0.22424-0.41949-0.49744-0.41345-0.86597c0.0282-1.51904,0.03961-3.03809,0.06445-4.5578
		C44.92847,18.08076,44.99622,18.02168,45.03516,17.95454z"/>
	<path fill="#A1C900" d="M117.45361,24.74898c-1.47589-1.5318-2.69873-3.26233-3.99872-4.94043
		c-1.22754-1.58551-2.93292-2.64075-3.89465-4.45245c-0.23022-0.435-0.698-0.39539-0.98993-0.14636
		c-0.00806-0.00739-0.01746-0.01343-0.02484-0.02014c-0.08929-0.07721-0.27252-0.12622-0.37787-0.08997
		c-0.05707,0.02014-0.1134,0.0423-0.17047,0.06311c-0.02887-0.01074-0.05841-0.02283-0.08789-0.03357
		c-0.10474-0.03693-0.28796,0.01074-0.37787,0.08728c-0.50604,0.43097-1.20068,0.67126-1.43628,1.3855
		c-0.01477,0.04626-0.07648,0.07581-0.11407,0.11676c-0.89868,0.99414-1.651,2.11383-2.66315,3.01465
		c-0.56909,0.50677-1.05768,1.10486-1.57379,1.66943c-0.8866,0.96655-1.76514,1.93854-2.69,2.95618
		c0.03558,0.25641-0.08118,0.57727,0.04565,0.87933c0.0611,0.00739,0.10138,0.02417,0.11212,0.01276
		c0.90735-0.91156,1.81342-1.82312,2.71344-2.74139c0.15234-0.15503,0.27448-0.341,0.41138-0.51282
		c0.08527-0.10742,0.16309-0.22089,0.25641-0.31952c0.84833-0.89081,1.70203-1.77618,2.54767-2.66827
		c0.62146-0.65515,1.23291-1.32037,1.85504-1.97552c0.08453-0.08923,0.16644-0.23022,0.35706-0.14697
		c0.01678,0.06512,0.04895,0.13892,0.04895,0.21277c-0.00128,1.72717-0.01202,3.45428-0.00934,5.18146
		c0,0.29669-0.08795,0.5249-0.31616,0.71893c-0.31073,0.26447-0.61206,0.54034-0.90399,0.82629
		c-0.8396,0.82159-1.65845,1.66473-2.51282,2.47156c-0.53619,0.50684-1.13019,0.94983-1.6792,1.44458
		c-0.85101,0.76855-1.67987,1.56268-2.52954,2.33258c-0.48456,0.4397-0.55304,0.69342-0.29596,1.43115
		c0.58722-0.49945,1.20471-0.9505,1.66644-1.57141c0.06378-0.08728,0.13623-0.18463,0.22821-0.23297
		c0.52283-0.27588,0.87518-0.737,1.28186-1.14178c0.1933-0.1933,0.3866-0.39337,0.60675-0.55243
		c0.604-0.43634,1.1181-0.96393,1.63623-1.49359c0.78455-0.80078,1.59265-1.58081,2.39532-2.36414
		c0.08728-0.08527,0.20471-0.13696,0.39264-0.25909c0.11139,2.94141,0.06171,5.77954-0.00671,8.61023
		c-0.4007,0.36847-0.78058,0.7229-1.16644,1.07062c-0.56848,0.51288-1.18323,0.98206-1.70135,1.54053
		c-0.71613,0.77197-1.75897,1.51978-1.75897,1.51978h1.20758c0,0,0.86682-0.71826,1.19568-1.09216
		c0.3584-0.40881,0.76709-0.77527,1.17181-1.14111c0.29462-0.26715,0.61676-0.50348,1.0752-0.87268
		c-0.05035,2.39844,0.00818,3.10596,0.00818,3.10596h1.15369c0,0,0.06763-0.7337,0.03412-3.13147
		c0.45569,0.37189,0.77649,0.61023,1.06842,0.87872c0.40204,0.3692,0.80878,0.73834,1.16516,1.14984
		c0.3255,0.37592,1.19159,1.10291,1.19159,1.10291h1.18518c0,0-1.01971-0.74982-1.7298-1.52582
		c-0.51477-0.56317-1.12622-1.03638-1.69128-1.55261c-0.38324-0.3504-0.76111-0.70746-1.15979-1.07867
		c-0.04895-2.83136-0.07916-5.66943,0.0517-8.60956c0.18726,0.1228,0.30469,0.17584,0.39062,0.26111
		c0.7973,0.78937,1.5993,1.5741,2.37988,2.38092c0.5141,0.53235,1.02484,1.06396,1.62549,1.50366
		c0.21948,0.1604,0.41144,0.36182,0.60272,0.55646c0.40399,0.40747,0.75433,0.87195,1.27448,1.15118
		c0.09198,0.04901,0.16309,0.14636,0.22687,0.23364c0.4577,0.62427,1.07184,1.07935,1.6557,1.58282
		c0.26312-0.73572,0.19531-0.99011-0.28656-1.4325c-0.84497-0.77661-1.66779-1.57611-2.5141-2.35004
		c-0.54431-0.49811-1.13629-0.9458-1.66913-1.45599c-0.84906-0.81219-1.6618-1.66138-2.49603-2.48834
		c-0.28992-0.28796-0.5899-0.56586-0.89868-0.83234c-0.22614-0.19537-0.31342-0.42358-0.31073-0.72028
		c0.01477-1.72784,0.01611-3.45496,0.02417-5.18213c0.00067-0.07385,0.03424-0.14697,0.0517-0.2121
		c0.08923-0.03894,0.15436-0.02551,0.2074,0.00604c0.90332,1.29889,2.11676,2.33191,3.21948,3.47845
		c1.59259,1.65601,2.76105,3.68854,4.36511,5.3526C117.10596,26.3224,118.05426,25.3719,117.45361,24.74898z"/>
</g>
</svg>
