<?xml version="1.0" encoding="UTF-8"?>
<svg width="106px" height="70px" viewBox="0 0 106 70" version="1.1" xmlns="http://www.w3.org/2000/svg" xmlns:xlink="http://www.w3.org/1999/xlink">
    <!-- Generator: Sketch 45.2 (43514) - http://www.bohemiancoding.com/sketch -->
    <title>REI Logo</title>
    <desc>Created with Sketch.</desc>
    <defs>
        <filter x="-14.1%" y="-21.8%" width="128.2%" height="143.6%" filterUnits="objectBoundingBox" id="filter-1">
            <feOffset dx="0" dy="0" in="SourceAlpha" result="shadowOffsetOuter1"></feOffset>
            <feGaussianBlur stdDeviation="4" in="shadowOffsetOuter1" result="shadowBlurOuter1"></feGaussianBlur>
            <feColorMatrix values="0 0 0 0 0   0 0 0 0 0   0 0 0 0 0  0 0 0 0.75 0" type="matrix" in="shadowBlurOuter1" result="shadowMatrixOuter1"></feColorMatrix>
            <feMerge>
                <feMergeNode in="shadowMatrixOuter1"></feMergeNode>
                <feMergeNode in="SourceGraphic"></feMergeNode>
            </feMerge>
        </filter>
    </defs>
    <g id="Final" stroke="none" stroke-width="1" fill="none" fill-rule="evenodd">
        <g id="Desktop-HD" transform="translate(-675.000000, -138.000000)" fill="#FFFFFF">
            <g id="REI-Logo" filter="url(#filter-1)" transform="translate(682.000000, 145.000000)">
                <polygon id="Fill-4" points="89.1924137 20.7729683 87.4668197 20.7729683 87.4668197 21.0614275 88.1493433 21.0614275 88.1493433 22.9337538 88.509387 22.9337538 88.509387 21.0614275 89.1924137 21.0614275"></polygon>
                <polygon id="Fill-6" points="92.0291627 20.7729683 91.4787838 20.7729683 90.8383519 22.414494 90.1876907 20.7729683 89.63161 20.7729683 89.63161 22.9337538 89.9914861 22.9337538 89.9914861 21.1297205 90.0022187 21.1297205 90.7169399 22.9337538 90.9443359 22.9337538 91.6588895 21.1297205 91.6692866 21.1297205 91.6692866 22.9337538 92.0291627 22.9337538"></polygon>
                <path d="M40.6652401,31.3476903 L46.5042543,31.3476903 L46.5042543,25.3525242 L40.6689294,28.2947749 L40.6652401,31.3476903 Z M73.2229555,5.72732779 L86.6944948,17.3795181 L84.4518935,17.3795181 L83.3157517,17.3795181 L73.3284364,8.9344426 L65.5069176,17.3830076 L50.3315848,3.89388369 L37.4959495,20.7888535 L39.820722,20.7888535 C40.2890975,20.7888535 40.6689294,21.165213 40.6689294,21.6294728 L40.6689294,23.7311042 L46.5042543,20.7888535 L54.6740781,20.7888535 L54.6740781,31.8445181 L51.4544786,35.0345181 L56.1695928,41.906361 L47.0009704,41.906361 L43.2056699,36.3752885 L40.6652401,36.3752885 L40.6652401,41.906361 L32.4934039,41.906361 L32.4934039,27.3734003 L23.7576054,38.8717236 L29.5671051,51.9087175 L-8.38481033e-05,44.2343066 L6.27896521,31.3505151 L2.93023967,31.3476903 L8.2421847,20.7772221 L5.7446851,20.7772221 L13.6250652,5.69542447 L21.6892404,20.7772221 L19.1919085,20.7772221 L22.3444295,27.2394728 L49.6178697,0.166013595 L51.3255202,1.68906495 L51.3354143,1.67793202 L64.4636795,13.0350166 L73.2229555,5.72732779 Z M59.2010372,46.6125997 C59.1475421,46.5265272 59.06034,46.5265272 59.0070127,46.6125997 L58.2017355,47.9146541 C58.1482404,48.0008927 58.1482404,48.1421314 58.2017355,48.2283701 L59.0070127,49.5304245 C59.06034,49.616497 59.1475421,49.616497 59.2010372,49.5304245 L60.0061467,48.2283701 C60.0596417,48.1421314 60.0596417,48.0008927 60.0061467,47.9146541 L59.2010372,46.6125997 Z M84.3593252,46.7835816 C84.3593252,46.6559683 84.2504903,46.5481284 84.1213642,46.5481284 L77.005008,46.5481284 L77.005008,49.5948958 L84.1213642,49.5948958 C84.2504903,49.5948958 84.3593252,49.4870559 84.3593252,49.3591103 L84.3593252,46.7835816 Z M86.6944948,46.7835816 L86.6944948,49.3591103 C86.6944948,50.7650166 85.5402418,51.9087175 84.1213642,51.9087175 L77.005008,51.9087175 L77.005008,54.9814063 L74.6698383,54.9814063 L74.6698383,44.2343066 L84.1213642,44.2343066 C85.5402418,44.2343066 86.6944948,45.3780076 86.6944948,46.7835816 L86.6944948,46.7835816 Z M70.926859,46.7835816 C70.926859,46.6559683 70.8176888,46.5481284 70.6887304,46.5481284 L63.8103351,46.5481284 C63.6813767,46.5481284 63.5722065,46.6559683 63.5722065,46.7835816 L63.5722065,49.3591103 C63.5722065,49.4870559 63.6813767,49.5948958 63.8103351,49.5948958 L70.6887304,49.5948958 C70.8176888,49.5948958 70.926859,49.4870559 70.926859,49.3591103 L70.926859,46.7835816 Z M73.261861,46.7835816 L73.261861,49.3591103 C73.261861,50.7650166 72.107608,51.9087175 70.6887304,51.9087175 L63.8103351,51.9087175 C62.3914575,51.9087175 61.2370368,50.7650166 61.2370368,49.3591103 L61.2370368,46.7835816 C61.2370368,45.3780076 62.3914575,44.2343066 63.8103351,44.2343066 L70.6887304,44.2343066 C72.107608,44.2343066 73.261861,45.3780076 73.261861,46.7835816 L73.261861,46.7835816 Z M32.4934039,46.7835816 L32.4934039,49.3591103 C32.4934039,50.7650166 33.6476569,51.9087175 35.0665345,51.9087175 L43.5380438,51.9087175 L43.5380438,49.5948958 L35.0665345,49.5948958 C34.9375761,49.5948958 34.8284059,49.4870559 34.8284059,49.3591103 L34.8284059,46.7835816 C34.8284059,46.6559683 34.9375761,46.5481284 35.0665345,46.5481284 L43.5380438,46.5481284 L43.5380438,44.2343066 L35.0665345,44.2343066 C33.6476569,44.2343066 32.4934039,45.3780076 32.4934039,46.7835816 L32.4934039,46.7835816 Z M54.6355079,46.7835816 C54.6355079,46.6559683 54.5265054,46.5481284 54.3973793,46.5481284 L52.0529864,46.5481284 L49.8635447,46.5481284 L47.5191517,46.5481284 C47.3900256,46.5481284 47.2810231,46.6559683 47.2810231,46.7835816 L47.2810231,49.3591103 C47.2810231,49.4870559 47.3900256,49.5948958 47.5191517,49.5948958 L54.3973793,49.5948958 C54.5265054,49.5948958 54.6355079,49.4870559 54.6355079,49.3591103 L54.6355079,46.7835816 Z M56.9706776,46.7835816 L56.9706776,49.3591103 C56.9706776,50.7650166 55.8162569,51.9087175 54.3973793,51.9087175 L47.5191517,51.9087175 C46.1002741,51.9087175 44.9458534,50.7650166 44.9458534,49.3591103 L44.9458534,46.7835816 C44.9458534,45.3780076 46.1002741,44.2343066 47.5191517,44.2343066 L54.3973793,44.2343066 C55.8162569,44.2343066 56.9706776,45.3780076 56.9706776,46.7835816 L56.9706776,46.7835816 Z M78.5248387,41.8948958 L85.0663324,41.8948958 C85.9655194,41.8948958 86.6944948,41.1724184 86.6944948,40.2814517 L86.6944948,20.7772221 L78.5248387,20.7772221 L78.5248387,41.8948958 Z M66.169653,25.3076601 L66.169653,29.0707568 L75.1999261,29.0707568 L75.1999261,33.601361 L66.169653,33.601361 L66.169653,37.3642915 L75.1999261,37.3642915 L75.1999261,41.8948958 L59.6684065,41.8948958 C58.7470835,41.8948958 57.9999969,41.154639 57.9999969,40.2415725 L57.9999969,20.7772221 L75.1999261,20.7772221 L75.1999261,25.3076601 L66.169653,25.3076601 Z" id="Fill-1"></path>
            </g>
        </g>
    </g>
</svg>